<?xml version="1.0" encoding="UTF-8" standalone="no" ?>
<!DOCTYPE svg PUBLIC "-//W3C//DTD SVG 1.1//EN" "http://www.w3.org/Graphics/SVG/1.1/DTD/svg11.dtd">
<svg xmlns="http://www.w3.org/2000/svg" xmlns:xlink="http://www.w3.org/1999/xlink" version="1.1" width="441" height="440" viewBox="0 0 441 440" xml:space="preserve">
<defs>
</defs>
<g transform="matrix(1 0 0 1 540 540)" id="a51f8b01-9bc9-41d7-83fa-603617ab1215"  >
<rect style="stroke: none; stroke-width: 1; stroke-dasharray: none; stroke-linecap: butt; stroke-dashoffset: 0; stroke-linejoin: miter; stroke-miterlimit: 4; fill: rgb(255,255,255); fill-rule: nonzero; opacity: 1; visibility: hidden;" vector-effect="non-scaling-stroke"  x="-540" y="-540" rx="0" ry="0" width="441" height="440" />
</g>
<g transform="matrix(1 0 0 1 540 540)" id="8b9b6bce-00f1-4ad0-93dd-43c154407906"  >
</g>
<g transform="matrix(1 0 0 1 174.02 223.82)"  >
<g style="" vector-effect="non-scaling-stroke"   >
		<g transform="matrix(1 0 0 1 0 214.02)"  >
<path style="stroke: none; stroke-width: 1; stroke-dasharray: none; stroke-linecap: butt; stroke-dashoffset: 0; stroke-linejoin: miter; stroke-miterlimit: 4; fill: rgb(38,50,56); fill-rule: nonzero; opacity: 1;" vector-effect="non-scaling-stroke"  transform=" translate(-360.08, -433.13)" d="M 520.369 433.13 C 520.369 433.275 448.601 433.399 360.1 433.399 C 271.599 433.399 199.8 433.275 199.8 433.13 C 199.8 432.986 271.558 432.862 360.1 432.862 C 448.642 432.862 520.369 432.996 520.369 433.13 Z" stroke-linecap="round" />
</g>
		<g transform="matrix(1 0 0 1 114.27 33.59)"  >
<path style="stroke: none; stroke-width: 1; stroke-dasharray: none; stroke-linecap: butt; stroke-dashoffset: 0; stroke-linejoin: miter; stroke-miterlimit: 4; fill: rgb(76,175,79); fill-rule: nonzero; opacity: 1;" vector-effect="non-scaling-stroke"  transform=" translate(-474.35, -252.7)" d="M 450.441 306.606 C 434.473 295.454 430.855 274.753 431.486 256.139 C 431.589 253.038 431.248 249.752 432.726 247.034 C 434.204 244.315 437.656 242.445 440.436 243.747 C 442.741 244.832 443.743 247.519 445.035 249.741 C 446.759 252.701 449.285 255.112 452.322 256.697 C 454.296 257.731 456.745 258.351 458.699 257.276 C 461.386 255.798 461.696 252.108 461.675 249.008 C 461.675 243.24 461.641 237.48 461.572 231.727 C 461.386 228.638 461.7 225.539 462.502 222.549 C 463.463 219.614 465.602 216.896 468.527 216.069 C 471.452 215.242 475.101 216.948 475.762 219.965 C 475.876 221.244 475.907 222.528 475.855 223.81 C 475.938 225.102 476.537 226.518 477.746 226.911 C 478.956 227.303 480.217 226.404 481.147 225.495 C 484.33 222.394 486.5 218.353 488.516 214.364 C 490.531 210.374 492.505 206.271 495.399 202.871 C 498.293 199.471 502.293 196.773 506.768 196.515 C 511.243 196.256 515.904 199.006 517.02 203.346 C 518.137 207.687 515.604 212.121 512.886 215.645 C 508.785 220.877 503.95 225.489 498.531 229.34 C 497.473 229.917 496.629 230.819 496.123 231.913 C 495.451 233.98 497.404 236.047 499.44 236.698 C 501.745 237.463 504.246 237.225 506.675 237.515 C 509.104 237.804 511.687 238.858 512.607 241.132 C 513.868 244.295 511.222 247.602 508.628 249.772 C 503.419 254.113 497.504 257.528 491.141 259.87 C 488.867 260.697 486.48 261.431 484.64 263.022 C 482.8 264.614 481.705 267.394 482.811 269.575 C 483.917 271.755 486.759 272.448 489.146 272.004 C 491.534 271.559 493.652 270.278 495.926 269.42 C 500.174 267.818 505.652 268.107 508.328 271.776 C 509.158 273.04 509.683 274.479 509.862 275.98 C 510.041 277.481 509.87 279.003 509.362 280.427 C 508.328 283.26 506.736 285.857 504.68 288.064 C 497.911 296.152 489.116 302.297 479.193 305.872 C 469.344 309.283 460.218 310.213 450.43 306.627" stroke-linecap="round" />
</g>
		<g transform="matrix(1 0 0 1 121.01 52.56)"  >
<path style="stroke: none; stroke-width: 1; stroke-dasharray: none; stroke-linecap: butt; stroke-dashoffset: 0; stroke-linejoin: miter; stroke-miterlimit: 4; fill: rgb(38,50,56); fill-rule: nonzero; opacity: 1;" vector-effect="non-scaling-stroke"  transform=" translate(-481.1, -271.67)" d="M 512.473 199.068 C 512.473 199.068 512.38 199.171 512.173 199.357 L 511.253 200.173 C 510.447 200.897 509.259 201.951 507.76 203.346 C 503.511 207.291 499.566 211.551 495.957 216.09 C 493.652 218.953 491.265 222.198 488.722 225.722 C 486.18 229.247 483.555 233.05 480.95 237.091 C 478.174 241.352 475.631 245.762 473.333 250.299 C 472.134 252.666 471.08 255.136 469.995 257.658 L 466.791 265.358 C 462.568 275.057 458.89 284.984 455.774 295.092 C 453.264 303.364 451.534 311.851 450.606 320.445 C 450.005 326.244 449.908 332.085 450.317 337.901 C 450.482 339.968 450.637 341.549 450.782 342.624 C 450.844 343.141 450.885 343.555 450.926 343.854 L 450.926 344.278 C 450.882 344.144 450.851 344.005 450.833 343.865 C 450.782 343.565 450.72 343.162 450.637 342.645 C 450.451 341.611 450.255 339.979 450.069 337.911 C 449.57 332.085 449.605 326.224 450.172 320.404 C 451.042 311.773 452.734 303.246 455.226 294.937 C 458.316 284.8 461.984 274.848 466.212 265.131 L 469.499 257.462 C 470.584 254.95 471.649 252.459 472.858 250.082 C 475.171 245.531 477.735 241.111 480.537 236.843 C 483.183 232.709 485.849 228.967 488.361 225.474 C 490.872 221.981 493.301 218.715 495.595 215.862 C 499.241 211.336 503.239 207.106 507.553 203.212 C 509.083 201.837 510.302 200.804 511.129 200.111 L 512.09 199.336 C 512.208 199.234 512.336 199.144 512.473 199.068 Z" stroke-linecap="round" />
</g>
		<g transform="matrix(1 0 0 1 110.66 13.95)"  >
<path style="stroke: none; stroke-width: 1; stroke-dasharray: none; stroke-linecap: butt; stroke-dashoffset: 0; stroke-linejoin: miter; stroke-miterlimit: 4; fill: rgb(38,50,56); fill-rule: nonzero; opacity: 1;" vector-effect="non-scaling-stroke"  transform=" translate(-470.74, -233.07)" d="M 472.992 250.062 C 472.846 249.636 472.746 249.196 472.692 248.749 C 472.527 247.891 472.341 246.682 472.124 245.111 C 471.68 242.011 471.225 237.763 470.739 233.06 C 470.253 228.358 469.706 224.1 469.251 221.03 C 469.013 219.5 468.806 218.27 468.662 217.413 C 468.549 216.974 468.49 216.522 468.486 216.069 C 468.664 216.483 468.792 216.917 468.868 217.361 C 469.096 218.208 469.354 219.428 469.644 220.968 C 470.233 224.069 470.811 228.285 471.297 232.998 C 471.783 237.711 472.196 241.845 472.517 245.059 C 472.672 246.506 472.806 247.736 472.91 248.718 C 472.99 249.161 473.018 249.612 472.992 250.062 Z" stroke-linecap="round" />
</g>
		<g transform="matrix(1 0 0 1 132.86 27.18)"  >
<path style="stroke: none; stroke-width: 1; stroke-dasharray: none; stroke-linecap: butt; stroke-dashoffset: 0; stroke-linejoin: miter; stroke-miterlimit: 4; fill: rgb(38,50,56); fill-rule: nonzero; opacity: 1;" vector-effect="non-scaling-stroke"  transform=" translate(-492.95, -246.3)" d="M 512.762 242.641 C 512.259 242.751 511.747 242.813 511.233 242.827 C 510.199 242.92 508.732 243.044 506.913 243.251 C 503.275 243.644 498.272 244.367 492.784 245.401 C 487.296 246.434 482.366 247.602 478.821 248.501 C 477.054 248.956 475.628 249.369 474.687 249.648 C 474.185 249.827 473.665 249.951 473.137 250.02 C 473.615 249.78 474.113 249.583 474.625 249.431 C 475.597 249.09 477.002 248.615 478.759 248.108 C 482.284 247.075 487.214 245.845 492.722 244.791 C 497.389 243.898 502.097 243.243 506.83 242.827 C 508.659 242.672 510.137 242.61 511.171 242.589 C 511.702 242.553 512.235 242.571 512.762 242.641 Z" stroke-linecap="round" />
</g>
		<g transform="matrix(1 0 0 1 85.65 49.73)"  >
<path style="stroke: none; stroke-width: 1; stroke-dasharray: none; stroke-linecap: butt; stroke-dashoffset: 0; stroke-linejoin: miter; stroke-miterlimit: 4; fill: rgb(38,50,56); fill-rule: nonzero; opacity: 1;" vector-effect="non-scaling-stroke"  transform=" translate(-445.73, -268.84)" d="M 455.732 294.214 C 455.622 294.064 455.532 293.901 455.464 293.728 L 454.781 292.292 C 454.192 291.041 453.397 289.191 452.446 286.928 C 450.523 282.38 448.074 276.014 445.469 268.944 C 442.865 261.875 440.467 255.508 438.648 250.909 C 437.759 248.677 437.025 246.847 436.478 245.483 L 435.899 244.005 C 435.819 243.835 435.763 243.654 435.734 243.468 C 435.844 243.617 435.934 243.781 436.002 243.954 L 436.684 245.39 C 437.263 246.641 438.069 248.491 439.02 250.754 C 440.943 255.302 443.392 261.668 445.996 268.738 C 448.601 275.807 450.999 282.173 452.818 286.773 C 453.707 289.005 454.44 290.834 454.978 292.199 C 455.216 292.788 455.412 293.232 455.567 293.677 C 455.647 293.847 455.703 294.028 455.732 294.214 Z" stroke-linecap="round" />
</g>
		<g transform="matrix(1 0 0 1 122.04 66.58)"  >
<path style="stroke: none; stroke-width: 1; stroke-dasharray: none; stroke-linecap: butt; stroke-dashoffset: 0; stroke-linejoin: miter; stroke-miterlimit: 4; fill: rgb(38,50,56); fill-rule: nonzero; opacity: 1;" vector-effect="non-scaling-stroke"  transform=" translate(-482.12, -285.69)" d="M 508.525 277.192 C 508.359 277.287 508.182 277.36 507.998 277.409 L 506.468 277.926 L 500.815 279.755 C 496.04 281.305 489.446 283.517 482.211 285.956 C 474.977 288.395 468.352 290.566 463.546 292.013 C 461.148 292.746 459.195 293.304 457.841 293.677 L 456.28 294.08 C 456.099 294.137 455.912 294.175 455.722 294.193 C 455.887 294.098 456.065 294.025 456.249 293.976 L 457.779 293.46 L 463.432 291.63 C 468.207 290.08 474.801 287.868 482.036 285.429 C 489.27 282.99 495.885 280.819 500.691 279.373 C 503.099 278.639 505.042 278.081 506.406 277.709 L 507.967 277.305 C 508.148 277.248 508.335 277.21 508.525 277.192 Z" stroke-linecap="round" />
</g>
		<g transform="matrix(1 0 0 1 109.36 -162.8)"  >
<path style="stroke: none; stroke-width: 1; stroke-dasharray: none; stroke-linecap: butt; stroke-dashoffset: 0; stroke-linejoin: miter; stroke-miterlimit: 4; fill: rgb(76,175,79); fill-rule: nonzero; opacity: 1;" vector-effect="non-scaling-stroke"  transform=" translate(-469.45, -56.31)" d="M 486.986 26.4893 L 481.663 28.391 L 479.379 21.4353 C 475.183 8.60927 461.809 1.79833 449.521 6.12881 C 437.232 10.4593 430.69 24.5256 434.886 37.3516 L 437.17 44.3073 L 431.827 46.2193 C 429.789 47.0096 428.135 48.5547 427.207 50.5334 C 426.279 52.5121 426.15 54.7722 426.845 56.844 L 441.656 102.102 C 441.963 103.128 442.473 104.081 443.157 104.905 C 443.84 105.73 444.682 106.409 445.632 106.901 C 446.583 107.394 447.623 107.69 448.69 107.773 C 449.758 107.856 450.831 107.724 451.846 107.383 L 507.005 87.6534 C 509.07 86.8645 510.748 85.3057 511.687 83.3049 C 512.625 81.3041 512.752 79.0173 512.039 76.9254 L 497.218 31.6672 C 496.903 30.6445 496.384 29.6958 495.694 28.8777 C 495.004 28.0597 494.156 27.389 493.201 26.9057 C 492.247 26.4225 491.204 26.1365 490.136 26.065 C 489.068 25.9934 487.997 26.1377 486.986 26.4893 Z M 444.942 33.724 C 443.811 30.389 444.014 26.7456 445.509 23.557 C 447.004 20.3685 449.675 17.8822 452.962 16.6191 C 454.586 16.0637 456.304 15.841 458.015 15.9642 C 459.727 16.0875 461.395 16.5542 462.922 17.3364 C 464.449 18.1187 465.803 19.2005 466.903 20.5174 C 468.002 21.8342 468.826 23.3591 469.323 25.001 L 471.597 31.9566 L 447.216 40.6796 L 444.942 33.724 Z M 475.948 73.8868 L 479.731 85.4416 C 479.8 85.6733 479.778 85.9229 479.668 86.1384 C 479.558 86.354 479.37 86.519 479.142 86.5992 L 473.84 88.4905 C 473.629 88.549 473.403 88.5236 473.21 88.4196 C 473.018 88.3155 472.873 88.1409 472.806 87.9324 L 468.992 76.4293 C 466.89 76.3147 464.872 75.5604 463.209 74.2675 C 461.547 72.9745 460.319 71.2046 459.691 69.1946 C 458.792 66.5373 458.956 63.6353 460.148 61.0962 C 461.341 58.5571 463.469 56.5778 466.088 55.5727 C 467.381 55.1309 468.75 54.954 470.113 55.0524 C 471.476 55.1508 472.805 55.5227 474.021 56.1457 C 475.237 56.7687 476.316 57.6302 477.192 58.6788 C 478.068 59.7275 478.724 60.9417 479.121 62.2493 C 479.786 64.2911 479.841 66.4825 479.279 68.555 C 478.717 70.6276 477.563 72.4913 475.958 73.9178 L 475.948 73.8868 Z" stroke-linecap="round" />
</g>
		<g transform="matrix(1 0 0 1 99.09 -182.78)"  >
<path style="stroke: none; stroke-width: 1; stroke-dasharray: none; stroke-linecap: butt; stroke-dashoffset: 0; stroke-linejoin: miter; stroke-miterlimit: 4; fill: rgb(38,50,56); fill-rule: nonzero; opacity: 1;" vector-effect="non-scaling-stroke"  transform=" translate(-459.18, -36.33)" d="M 481.426 28.267 C 481.426 28.4116 471.556 32.122 459.277 36.5352 C 446.999 40.9483 436.984 44.4933 436.932 44.39 C 436.881 44.2866 446.803 40.5452 459.091 36.1218 C 471.38 31.6983 481.374 28.1326 481.426 28.267 Z" stroke-linecap="round" />
</g>
		<g transform="matrix(1 0 0 1 120.43 -152.15)"  >
<path style="stroke: none; stroke-width: 1; stroke-dasharray: none; stroke-linecap: butt; stroke-dashoffset: 0; stroke-linejoin: miter; stroke-miterlimit: 4; fill: rgb(38,50,56); fill-rule: nonzero; opacity: 1;" vector-effect="non-scaling-stroke"  transform=" translate(-480.51, -66.96)" d="M 493.146 30.1686 C 493.191 30.2583 493.229 30.3517 493.26 30.4477 C 493.342 30.6544 493.435 30.9231 493.559 31.2538 C 493.828 32.0083 494.2 33.0522 494.665 34.3544 L 498.634 45.9092 C 500.288 50.8082 502.262 56.6166 504.453 63.0658 C 505.486 66.3007 506.706 69.67 507.843 73.215 C 508.451 75.0418 508.714 76.966 508.618 78.8891 C 508.53 79.8892 508.246 80.8622 507.781 81.7519 C 507.284 82.6388 506.621 83.4213 505.827 84.0567 C 504.23 85.2223 502.458 86.1259 500.577 86.7335 L 495.254 88.6456 L 485.177 92.2526 L 468.114 98.3297 L 456.59 102.381 L 453.489 103.415 L 452.663 103.683 C 452.574 103.723 452.48 103.747 452.384 103.756 C 452.384 103.756 452.466 103.756 452.642 103.632 L 453.448 103.311 L 456.549 102.143 L 468.011 97.9266 L 485.043 91.7255 L 495.099 88.0875 L 500.422 86.1651 C 502.25 85.5822 503.971 84.706 505.517 83.571 C 506.255 82.9814 506.873 82.255 507.336 81.4315 C 507.774 80.6086 508.038 79.7045 508.111 78.7754 C 508.207 76.9225 507.954 75.0681 507.367 73.308 C 506.251 69.794 505.073 66.3937 504.008 63.1588 C 501.859 56.6993 499.874 50.8702 498.303 45.9713 C 496.732 41.0723 495.409 37.1346 494.5 34.3648 C 494.066 33.0108 493.735 31.9566 493.466 31.1918 L 493.218 30.365 C 493.187 30.3024 493.163 30.2365 493.146 30.1686 Z" stroke-linecap="round" />
</g>
		<g transform="matrix(1 0 0 1 92.95 -191.38)"  >
<path style="stroke: none; stroke-width: 1; stroke-dasharray: none; stroke-linecap: butt; stroke-dashoffset: 0; stroke-linejoin: miter; stroke-miterlimit: 4; fill: rgb(38,50,56); fill-rule: nonzero; opacity: 1;" vector-effect="non-scaling-stroke"  transform=" translate(-453.03, -27.73)" d="M 464.042 15.9163 C 464.042 15.9163 463.494 15.6476 462.481 15.2342 C 461.037 14.6795 459.511 14.372 457.965 14.3247 C 455.673 14.2461 453.393 14.6767 451.288 15.5856 C 448.728 16.7173 446.54 18.5477 444.973 20.8669 C 443.396 23.1794 442.55 25.9123 442.545 28.7114 C 442.566 31.0055 442.914 33.2849 443.578 35.481 C 444.115 37.362 444.674 38.8606 445.046 39.9045 C 445.265 40.4347 445.445 40.9805 445.583 41.5374 C 445.289 41.0417 445.044 40.5191 444.849 39.9768 C 444.425 38.9433 443.816 37.4757 443.216 35.5843 C 442.48 33.3652 442.08 31.0487 442.028 28.7114 C 442 25.8066 442.866 22.9635 444.508 20.5672 C 446.129 18.1633 448.407 16.2762 451.071 15.1308 C 453.242 14.217 455.593 13.8139 457.944 13.9526 C 459.523 14.0331 461.075 14.4008 462.523 15.0378 C 462.91 15.2164 463.283 15.4236 463.639 15.6579 C 463.786 15.7225 463.922 15.8097 464.042 15.9163 Z" stroke-linecap="round" />
</g>
		<g transform="matrix(1 0 0 1 109.31 -147)"  >
<path style="stroke: none; stroke-width: 1; stroke-dasharray: none; stroke-linecap: butt; stroke-dashoffset: 0; stroke-linejoin: miter; stroke-miterlimit: 4; fill: rgb(38,50,56); fill-rule: nonzero; opacity: 1;" vector-effect="non-scaling-stroke"  transform=" translate(-469.39, -72.11)" d="M 464.517 56.3582 C 464.682 56.2582 464.855 56.1718 465.034 56.0998 C 465.551 55.8664 466.087 55.6762 466.636 55.5314 C 467.507 55.2743 468.406 55.1216 469.313 55.0766 C 470.547 55.0103 471.781 55.1967 472.94 55.6244 C 475.586 56.5546 478.015 59.2521 479.214 62.8591 C 479.789 64.7948 479.789 66.8558 479.214 68.7915 C 478.576 70.8924 477.434 72.8051 475.886 74.3622 L 475.948 74.0832 C 477.323 77.8556 478.821 81.9483 480.372 86.2168 L 480.465 86.4752 L 480.206 86.5682 L 477.839 87.3537 L 472.672 89.0796 L 472.413 89.1623 L 472.331 88.9039 C 470.915 84.6252 469.364 80.6357 468.197 76.7187 L 468.424 76.8944 C 466.403 76.7265 464.477 75.9682 462.884 74.7136 C 461.443 73.6038 460.262 72.1929 459.422 70.5795 C 458.664 69.1487 458.287 67.5472 458.326 65.9286 C 458.374 64.2744 458.787 62.6513 459.536 61.1754 C 460.285 59.6995 461.35 58.4074 462.657 57.3917 C 463.195 56.9552 463.798 56.6063 464.445 56.3582 C 463.861 56.7046 463.295 57.0806 462.75 57.4847 C 461.315 58.699 460.215 60.2612 459.556 62.0219 C 458.991 63.3496 458.726 64.7861 458.782 66.2281 C 458.837 67.6702 459.211 69.0821 459.877 70.3625 C 460.702 71.9146 461.856 73.2688 463.256 74.3312 C 464.776 75.5237 466.612 76.2426 468.538 76.3983 L 468.713 76.3983 L 468.765 76.5533 C 469.902 80.398 471.463 84.4184 472.899 88.7179 L 472.558 88.5526 L 477.726 86.8266 L 480.082 86.0307 L 479.917 86.3821 C 478.377 82.1137 476.889 78.0106 475.524 74.2382 L 475.524 74.0832 L 475.648 73.9592 C 477.151 72.4666 478.271 70.6337 478.914 68.6158 C 479.462 66.7642 479.462 64.7934 478.914 62.9418 C 477.788 59.4691 475.462 56.8336 472.94 55.9034 C 471.824 55.473 470.632 55.2726 469.437 55.3143 C 468.544 55.3348 467.656 55.4561 466.791 55.6761 C 465.251 56.0585 464.528 56.4099 464.517 56.3582 Z" stroke-linecap="round" />
</g>
		<g transform="matrix(1 0 0 1 21.52 -16.46)"  >
<path style="stroke: none; stroke-width: 1; stroke-dasharray: none; stroke-linecap: butt; stroke-dashoffset: 0; stroke-linejoin: miter; stroke-miterlimit: 4; fill: rgb(69,90,100); fill-rule: nonzero; opacity: 1;" vector-effect="non-scaling-stroke"  transform=" translate(-381.61, -202.65)" d="M 432.571 354.779 L 329.332 354.303 C 323.37 354.27 317.665 351.873 313.469 347.637 C 309.274 343.4 306.931 337.672 306.956 331.71 L 308.052 72.9049 C 308.064 69.9512 308.658 67.0288 309.8 64.3048 C 310.943 61.5808 312.61 59.1086 314.709 57.0296 C 316.807 54.9506 319.294 53.3055 322.029 52.1883 C 324.763 51.0711 327.691 50.5038 330.645 50.5188 L 433.873 50.9942 C 439.835 51.0243 445.541 53.4194 449.739 57.6536 C 453.936 61.8878 456.281 67.6147 456.259 73.5767 L 455.164 332.372 C 455.152 335.326 454.558 338.25 453.416 340.975 C 452.274 343.7 450.606 346.174 448.508 348.254 C 446.41 350.335 443.923 351.982 441.188 353.102 C 438.454 354.221 435.526 354.791 432.571 354.779 Z" stroke-linecap="round" />
</g>
		<g transform="matrix(1 0 0 1 21.52 -17.32)"  >
<path style="stroke: none; stroke-width: 1; stroke-dasharray: none; stroke-linecap: butt; stroke-dashoffset: 0; stroke-linejoin: miter; stroke-miterlimit: 4; fill: rgb(255,255,255); fill-rule: nonzero; opacity: 1;" vector-effect="non-scaling-stroke"  transform=" translate(-381.6, -201.79)" d="M 433.718 59.8929 L 413.709 59.8929 C 413.056 59.905 412.412 60.0456 411.814 60.3066 C 411.215 60.5677 410.674 60.9441 410.221 61.4144 C 409.768 61.8847 409.412 62.4396 409.173 63.0475 C 408.935 63.6554 408.819 64.3043 408.831 64.9571 L 408.831 68.5848 C 408.843 69.2372 408.727 69.8856 408.488 70.4928 C 408.249 71.1001 407.893 71.6544 407.44 72.1238 C 406.987 72.5933 406.446 72.9687 405.847 73.2287 C 405.249 73.4887 404.605 73.628 403.953 73.6388 L 364.947 73.4631 C 363.628 73.4279 362.376 72.8704 361.467 71.9132 C 360.558 70.9559 360.067 69.677 360.1 68.3574 L 360.1 64.7298 C 360.133 63.4119 359.643 62.1346 358.736 61.1776 C 357.83 60.2206 356.581 59.662 355.263 59.6241 L 348.225 59.6241 L 330.707 59.5415 C 326.54 59.5167 322.533 61.1439 319.563 64.067 C 316.594 66.9901 314.904 70.9707 314.863 75.1374 L 313.829 327.752 C 313.82 329.819 314.217 331.868 315 333.781 C 315.782 335.695 316.933 337.435 318.388 338.903 C 319.843 340.372 321.573 341.539 323.479 342.339 C 325.385 343.139 327.43 343.555 329.497 343.565 L 432.519 344.04 C 434.588 344.05 436.638 343.652 438.552 342.869 C 440.467 342.086 442.209 340.934 443.678 339.478 C 445.147 338.022 446.316 336.291 447.116 334.384 C 447.916 332.476 448.333 330.43 448.343 328.362 L 449.376 75.7472 C 449.401 71.5688 447.765 67.5515 444.829 64.5786 C 441.893 61.6056 437.897 59.9202 433.718 59.8929 Z" stroke-linecap="round" />
</g>
		<g transform="matrix(1 0 0 1 21.53 79.12)"  >
<path style="stroke: none; stroke-width: 1; stroke-dasharray: none; stroke-linecap: butt; stroke-dashoffset: 0; stroke-linejoin: miter; stroke-miterlimit: 4; fill: rgb(76,175,79); fill-rule: nonzero; opacity: 1;" vector-effect="non-scaling-stroke"  transform=" translate(-381.61, -298.23)" d="M 419.859 310.337 L 343.254 310.006 C 342.458 310.006 341.817 309.138 341.827 308.084 L 341.91 288.044 C 341.91 287.01 342.561 286.121 343.357 286.121 L 419.962 286.473 C 420.403 286.549 420.797 286.793 421.063 287.153 C 421.329 287.513 421.445 287.962 421.388 288.406 L 421.316 308.425 C 421.316 309.489 420.654 310.347 419.859 310.337 Z" stroke-linecap="round" />
</g>
		<g transform="matrix(1 0 0 1 21.31 78.12)"  >
<path style="stroke: none; stroke-width: 1; stroke-dasharray: none; stroke-linecap: butt; stroke-dashoffset: 0; stroke-linejoin: miter; stroke-miterlimit: 4; fill: rgb(232,232,227); fill-rule: nonzero; opacity: 1;" vector-effect="non-scaling-stroke"  transform=" translate(-381.39, -297.23)" d="M 366.544 300.124 C 366.122 300.124 365.715 300.057 365.325 299.921 C 364.94 299.78 364.642 299.601 364.43 299.384 L 364.666 298.921 C 364.867 299.116 365.135 299.281 365.471 299.417 C 365.813 299.547 366.17 299.612 366.544 299.612 C 366.902 299.612 367.192 299.569 367.414 299.482 C 367.642 299.39 367.807 299.268 367.91 299.116 C 368.019 298.964 368.073 298.796 368.073 298.612 C 368.073 298.39 368.008 298.211 367.878 298.075 C 367.753 297.94 367.588 297.834 367.382 297.758 C 367.176 297.677 366.948 297.606 366.699 297.547 C 366.45 297.487 366.2 297.425 365.951 297.36 C 365.701 297.289 365.471 297.197 365.26 297.083 C 365.054 296.969 364.886 296.82 364.756 296.636 C 364.631 296.446 364.568 296.2 364.568 295.896 C 364.568 295.614 364.642 295.357 364.788 295.124 C 364.94 294.885 365.17 294.695 365.479 294.554 C 365.788 294.408 366.184 294.335 366.666 294.335 C 366.986 294.335 367.303 294.381 367.618 294.473 C 367.932 294.56 368.203 294.682 368.431 294.839 L 368.228 295.319 C 367.984 295.156 367.723 295.037 367.447 294.961 C 367.176 294.885 366.913 294.847 366.658 294.847 C 366.317 294.847 366.035 294.893 365.813 294.985 C 365.59 295.078 365.425 295.202 365.317 295.359 C 365.214 295.511 365.162 295.685 365.162 295.88 C 365.162 296.102 365.224 296.281 365.349 296.417 C 365.479 296.552 365.647 296.658 365.853 296.734 C 366.065 296.81 366.295 296.877 366.544 296.937 C 366.794 296.997 367.04 297.062 367.284 297.132 C 367.534 297.203 367.761 297.295 367.967 297.409 C 368.179 297.517 368.347 297.663 368.472 297.848 C 368.602 298.032 368.667 298.273 368.667 298.571 C 368.667 298.848 368.591 299.105 368.439 299.344 C 368.287 299.577 368.054 299.767 367.74 299.913 C 367.431 300.054 367.032 300.124 366.544 300.124 Z M 369.978 300.076 L 369.978 294.384 L 370.579 294.384 L 370.579 300.076 L 369.978 300.076 Z M 372.431 300.076 L 372.431 294.384 L 372.927 294.384 L 376.855 299.328 L 376.595 299.328 L 376.595 294.384 L 377.188 294.384 L 377.188 300.076 L 376.692 300.076 L 372.773 295.132 L 373.033 295.132 L 373.033 300.076 L 372.431 300.076 Z M 381.542 300.124 C 381.109 300.124 380.707 300.054 380.339 299.913 C 379.976 299.767 379.659 299.563 379.388 299.303 C 379.122 299.043 378.913 298.737 378.761 298.384 C 378.615 298.032 378.542 297.647 378.542 297.23 C 378.542 296.812 378.615 296.427 378.761 296.075 C 378.913 295.723 379.125 295.416 379.396 295.156 C 379.667 294.896 379.984 294.695 380.347 294.554 C 380.716 294.408 381.117 294.335 381.55 294.335 C 381.984 294.335 382.38 294.403 382.738 294.538 C 383.101 294.674 383.41 294.88 383.665 295.156 L 383.291 295.538 C 383.052 295.3 382.789 295.129 382.502 295.026 C 382.214 294.923 381.906 294.872 381.575 294.872 C 381.222 294.872 380.897 294.931 380.599 295.051 C 380.306 295.164 380.049 295.33 379.827 295.547 C 379.61 295.758 379.439 296.007 379.314 296.295 C 379.195 296.576 379.135 296.888 379.135 297.23 C 379.135 297.566 379.195 297.877 379.314 298.165 C 379.439 298.452 379.61 298.704 379.827 298.921 C 380.049 299.132 380.306 299.298 380.599 299.417 C 380.897 299.531 381.22 299.588 381.567 299.588 C 381.892 299.588 382.198 299.539 382.486 299.441 C 382.778 299.344 383.047 299.178 383.291 298.945 L 383.632 299.401 C 383.361 299.639 383.044 299.821 382.681 299.946 C 382.317 300.065 381.938 300.124 381.542 300.124 Z M 383.055 299.328 L 383.055 297.23 L 383.632 297.23 L 383.632 299.401 L 383.055 299.328 Z M 389.756 300.124 C 389.03 300.124 388.458 299.916 388.04 299.498 C 387.623 299.081 387.414 298.463 387.414 297.644 L 387.414 294.384 L 388.016 294.384 L 388.016 297.62 C 388.016 298.292 388.168 298.788 388.471 299.108 C 388.775 299.428 389.203 299.588 389.756 299.588 C 390.315 299.588 390.745 299.428 391.049 299.108 C 391.353 298.788 391.504 298.292 391.504 297.62 L 391.504 294.384 L 392.09 294.384 L 392.09 297.644 C 392.09 298.463 391.881 299.081 391.464 299.498 C 391.052 299.916 390.483 300.124 389.756 300.124 Z M 393.903 300.076 L 393.903 294.384 L 396.033 294.384 C 396.516 294.384 396.931 294.462 397.278 294.62 C 397.624 294.771 397.89 294.994 398.074 295.286 C 398.264 295.574 398.359 295.923 398.359 296.335 C 398.359 296.736 398.264 297.083 398.074 297.376 C 397.89 297.663 397.624 297.886 397.278 298.043 C 396.931 298.2 396.516 298.279 396.033 298.279 L 394.236 298.279 L 394.505 297.994 L 394.505 300.076 L 393.903 300.076 Z M 394.505 298.043 L 394.236 297.75 L 396.017 297.75 C 396.586 297.75 397.017 297.628 397.31 297.384 C 397.608 297.135 397.757 296.785 397.757 296.335 C 397.757 295.88 397.608 295.528 397.31 295.278 C 397.017 295.029 396.586 294.904 396.017 294.904 L 394.236 294.904 L 394.505 294.62 L 394.505 298.043 Z" stroke-linecap="round" />
</g>
		<g transform="matrix(1 0 0 1 -14.85 -82.58)"  >
<path style="stroke: none; stroke-width: 1; stroke-dasharray: none; stroke-linecap: butt; stroke-dashoffset: 0; stroke-linejoin: miter; stroke-miterlimit: 4; fill: rgb(76,175,79); fill-rule: nonzero; opacity: 1;" vector-effect="non-scaling-stroke"  transform=" translate(-345.23, -136.53)" d="M 358.533 134.152 L 331.951 134.031 L 331.929 138.91 L 358.511 139.03 L 358.533 134.152 Z" stroke-linecap="round" />
</g>
		<g transform="matrix(1 0 0 1 -14.85 -82.58)"  >
<path style="stroke: none; stroke-width: 1; stroke-dasharray: none; stroke-linecap: butt; stroke-dashoffset: 0; stroke-linejoin: miter; stroke-miterlimit: 4; fill: rgb(0,0,0); fill-rule: nonzero; opacity: 0.1;" vector-effect="non-scaling-stroke"  transform=" translate(-345.23, -136.53)" d="M 358.533 134.152 L 331.951 134.031 L 331.929 138.91 L 358.511 139.03 L 358.533 134.152 Z" stroke-linecap="round" />
</g>
		<g transform="matrix(1 0 0 1 24.87 -64.11)"  >
<path style="stroke: none; stroke-width: 1; stroke-dasharray: none; stroke-linecap: butt; stroke-dashoffset: 0; stroke-linejoin: miter; stroke-miterlimit: 4; fill: rgb(224,224,224); fill-rule: nonzero; opacity: 1;" vector-effect="non-scaling-stroke"  transform=" translate(-384.95, -155)" d="M 436.457 164.103 C 436.666 164.082 436.871 164.034 437.067 163.959 C 437.353 163.847 437.602 163.657 437.784 163.41 C 437.967 163.163 438.077 162.87 438.1 162.563 C 438.1 160.92 438.1 158.522 438.1 155.442 C 438.1 153.902 438.1 152.176 438.1 150.275 C 438.1 149.81 438.1 149.324 438.1 148.838 C 438.168 148.367 438.065 147.887 437.811 147.484 C 437.669 147.291 437.484 147.134 437.27 147.024 C 437.057 146.915 436.821 146.857 436.581 146.854 L 434.969 146.854 L 420.034 146.854 L 333.59 146.533 C 333.369 146.53 333.15 146.579 332.952 146.678 C 332.754 146.777 332.583 146.923 332.453 147.102 C 332.204 147.506 332.108 147.987 332.184 148.456 C 332.184 149.489 332.184 150.523 332.184 151.556 C 332.184 153.623 332.184 155.69 332.184 157.757 C 332.184 158.791 332.184 159.825 332.184 160.858 C 332.142 161.339 332.142 161.824 332.184 162.305 C 332.239 162.511 332.34 162.703 332.479 162.864 C 332.619 163.025 332.794 163.152 332.991 163.235 C 333.194 163.316 333.412 163.355 333.631 163.349 L 338.892 163.349 L 361.847 163.473 L 400.707 163.711 L 426.907 163.917 L 434.028 164 L 435.878 164 C 436.302 164 436.509 164 436.509 164 L 435.878 164 L 434.028 164 L 426.907 164 L 400.707 164 L 361.847 163.876 L 338.892 163.783 L 333.631 163.783 C 333.342 163.795 333.053 163.745 332.784 163.638 C 332.512 163.522 332.27 163.345 332.076 163.121 C 331.883 162.898 331.743 162.632 331.668 162.346 C 331.608 162.075 331.587 161.797 331.606 161.52 L 331.606 160.755 C 331.606 159.721 331.606 158.688 331.606 157.654 C 331.606 155.587 331.606 153.52 331.606 151.453 C 331.606 150.419 331.606 149.386 331.606 148.352 C 331.586 148.077 331.586 147.801 331.606 147.526 C 331.644 147.222 331.762 146.933 331.947 146.688 C 332.125 146.439 332.361 146.236 332.635 146.098 C 332.908 145.959 333.211 145.889 333.518 145.893 L 419.962 146.368 L 434.896 146.471 L 436.509 146.471 C 436.793 146.472 437.073 146.54 437.324 146.672 C 437.576 146.803 437.793 146.993 437.956 147.226 C 438.247 147.675 438.365 148.215 438.286 148.745 C 438.286 149.231 438.286 149.717 438.286 150.182 C 438.286 152.063 438.286 153.789 438.286 155.349 C 438.286 158.45 438.214 160.827 438.193 162.481 C 438.168 162.799 438.052 163.103 437.86 163.357 C 437.668 163.612 437.407 163.806 437.108 163.917 C 436.913 164.039 436.687 164.103 436.457 164.103 Z" stroke-linecap="round" />
</g>
		<g transform="matrix(1 0 0 1 4.16 -65.11)"  >
<path style="stroke: none; stroke-width: 1; stroke-dasharray: none; stroke-linecap: butt; stroke-dashoffset: 0; stroke-linejoin: miter; stroke-miterlimit: 4; fill: rgb(76,175,79); fill-rule: nonzero; opacity: 1;" vector-effect="non-scaling-stroke"  transform=" translate(-364.24, -154)" d="M 388.553 151.722 L 339.936 151.722 L 339.936 156.28 L 388.553 156.28 L 388.553 151.722 Z" stroke-linecap="round" />
</g>
		<g transform="matrix(1 0 0 1 4.16 -65.11)"  >
<path style="stroke: none; stroke-width: 1; stroke-dasharray: none; stroke-linecap: butt; stroke-dashoffset: 0; stroke-linejoin: miter; stroke-miterlimit: 4; fill: rgb(255,255,255); fill-rule: nonzero; opacity: 0.2;" vector-effect="non-scaling-stroke"  transform=" translate(-364.24, -154)" d="M 388.553 151.722 L 339.936 151.722 L 339.936 156.28 L 388.553 156.28 L 388.553 151.722 Z" stroke-linecap="round" />
</g>
		<g transform="matrix(1 0 0 1 -15.03 -38.08)"  >
<path style="stroke: none; stroke-width: 1; stroke-dasharray: none; stroke-linecap: butt; stroke-dashoffset: 0; stroke-linejoin: miter; stroke-miterlimit: 4; fill: rgb(76,175,79); fill-rule: nonzero; opacity: 1;" vector-effect="non-scaling-stroke"  transform=" translate(-345.05, -181.03)" d="M 358.352 178.654 L 331.77 178.534 L 331.748 183.412 L 358.33 183.532 L 358.352 178.654 Z" stroke-linecap="round" />
</g>
		<g transform="matrix(1 0 0 1 -15.03 -38.08)"  >
<path style="stroke: none; stroke-width: 1; stroke-dasharray: none; stroke-linecap: butt; stroke-dashoffset: 0; stroke-linejoin: miter; stroke-miterlimit: 4; fill: rgb(0,0,0); fill-rule: nonzero; opacity: 0.1;" vector-effect="non-scaling-stroke"  transform=" translate(-345.05, -181.03)" d="M 358.352 178.654 L 331.77 178.534 L 331.748 183.412 L 358.33 183.532 L 358.352 178.654 Z" stroke-linecap="round" />
</g>
		<g transform="matrix(1 0 0 1 24.63 -19.52)"  >
<path style="stroke: none; stroke-width: 1; stroke-dasharray: none; stroke-linecap: butt; stroke-dashoffset: 0; stroke-linejoin: miter; stroke-miterlimit: 4; fill: rgb(224,224,224); fill-rule: nonzero; opacity: 1;" vector-effect="non-scaling-stroke"  transform=" translate(-384.72, -199.59)" d="M 435.785 208.607 C 435.994 208.581 436.201 208.543 436.405 208.493 C 436.694 208.401 436.96 208.249 437.184 208.045 C 437.409 207.842 437.587 207.593 437.708 207.315 C 437.87 206.898 437.934 206.449 437.894 206.002 C 437.894 205.506 437.894 204.969 437.894 204.37 C 437.894 203.171 437.894 201.806 437.894 200.235 L 437.894 193.673 C 437.943 193.197 437.838 192.719 437.594 192.308 C 437.339 191.887 436.938 191.574 436.467 191.43 C 435.953 191.338 435.428 191.31 434.907 191.347 L 420.034 191.347 L 333.89 191.027 C 333.427 191.028 332.979 191.197 332.631 191.503 C 332.284 191.809 332.059 192.231 331.999 192.691 C 331.999 193.673 331.999 194.758 331.999 195.791 C 331.999 197.858 331.999 199.925 331.999 201.992 C 331.999 203.026 331.999 204.059 331.999 205.093 C 331.96 205.576 331.981 206.062 332.061 206.54 C 332.19 206.959 332.455 207.323 332.815 207.573 C 333.197 207.816 333.645 207.931 334.097 207.904 L 335.533 207.904 L 338.52 207.904 L 361.392 208.018 L 400.118 208.256 L 426.225 208.462 L 433.325 208.545 L 426.225 208.545 L 400.118 208.545 L 361.371 208.504 L 338.499 208.421 L 334.004 208.421 C 333.445 208.454 332.89 208.305 332.422 207.997 C 331.952 207.671 331.609 207.193 331.451 206.643 C 331.358 206.118 331.33 205.584 331.368 205.052 C 331.368 204.018 331.368 202.985 331.368 201.951 C 331.368 199.884 331.368 197.817 331.368 195.75 C 331.368 194.716 331.368 193.683 331.368 192.649 C 331.443 192.058 331.732 191.515 332.179 191.121 C 332.626 190.728 333.201 190.51 333.797 190.51 L 419.941 190.985 L 434.814 191.099 C 435.368 191.065 435.923 191.103 436.467 191.213 C 437.004 191.388 437.457 191.756 437.739 192.246 C 438.006 192.701 438.122 193.23 438.069 193.755 C 438.069 194.241 438.069 194.716 438.069 195.192 C 438.069 197.062 438.069 198.778 438.069 200.359 C 438.069 201.941 438.069 203.274 438.069 204.494 C 438.069 205.083 438.069 205.63 438.069 206.137 C 438.107 206.599 438.032 207.063 437.852 207.491 C 437.718 207.776 437.524 208.029 437.283 208.232 C 437.042 208.435 436.761 208.584 436.457 208.669 C 436.231 208.688 436.004 208.667 435.785 208.607 Z" stroke-linecap="round" />
</g>
		<g transform="matrix(1 0 0 1 -15.23 8.36)"  >
<path style="stroke: none; stroke-width: 1; stroke-dasharray: none; stroke-linecap: butt; stroke-dashoffset: 0; stroke-linejoin: miter; stroke-miterlimit: 4; fill: rgb(76,175,79); fill-rule: nonzero; opacity: 1;" vector-effect="non-scaling-stroke"  transform=" translate(-344.85, -227.47)" d="M 358.152 225.089 L 331.57 224.969 L 331.548 229.847 L 358.13 229.967 L 358.152 225.089 Z" stroke-linecap="round" />
</g>
		<g transform="matrix(1 0 0 1 -15.23 8.36)"  >
<path style="stroke: none; stroke-width: 1; stroke-dasharray: none; stroke-linecap: butt; stroke-dashoffset: 0; stroke-linejoin: miter; stroke-miterlimit: 4; fill: rgb(0,0,0); fill-rule: nonzero; opacity: 0.1;" vector-effect="non-scaling-stroke"  transform=" translate(-344.85, -227.47)" d="M 358.152 225.089 L 331.57 224.969 L 331.548 229.847 L 358.13 229.967 L 358.152 225.089 Z" stroke-linecap="round" />
</g>
		<g transform="matrix(1 0 0 1 24.51 26.8)"  >
<path style="stroke: none; stroke-width: 1; stroke-dasharray: none; stroke-linecap: butt; stroke-dashoffset: 0; stroke-linejoin: miter; stroke-miterlimit: 4; fill: rgb(224,224,224); fill-rule: nonzero; opacity: 1;" vector-effect="non-scaling-stroke"  transform=" translate(-384.6, -245.91)" d="M 435.578 255.023 C 435.787 254.998 435.995 254.96 436.199 254.909 C 436.486 254.818 436.751 254.666 436.975 254.465 C 437.2 254.264 437.379 254.017 437.501 253.741 C 437.663 253.324 437.727 252.875 437.687 252.429 C 437.687 251.922 437.687 251.395 437.687 250.785 C 437.687 249.597 437.687 248.222 437.687 246.651 L 437.687 240.088 C 437.736 239.613 437.631 239.135 437.387 238.724 C 437.126 238.31 436.727 238.003 436.261 237.856 C 435.746 237.76 435.222 237.729 434.7 237.763 L 419.828 237.763 L 333.683 237.442 C 333.22 237.443 332.773 237.613 332.425 237.919 C 332.077 238.225 331.852 238.647 331.792 239.106 C 331.792 240.14 331.792 241.173 331.792 242.207 C 331.792 244.274 331.792 246.341 331.792 248.408 C 331.792 249.442 331.792 250.475 331.792 251.509 C 331.753 251.988 331.774 252.471 331.854 252.945 C 331.978 253.367 332.244 253.732 332.608 253.979 C 332.988 254.227 333.438 254.343 333.89 254.309 L 338.386 254.309 L 361.258 254.434 L 399.984 254.671 L 426.091 254.878 L 433.191 254.961 L 426.091 254.961 L 399.984 254.961 L 361.258 254.847 L 338.386 254.754 L 333.89 254.754 C 333.33 254.792 332.774 254.643 332.309 254.33 C 331.838 254.004 331.495 253.526 331.337 252.976 C 331.244 252.451 331.217 251.917 331.254 251.385 C 331.254 250.351 331.254 249.318 331.254 248.284 C 331.254 246.217 331.254 244.15 331.254 242.083 C 331.254 241.049 331.254 240.016 331.254 238.931 C 331.327 238.341 331.614 237.797 332.059 237.403 C 332.504 237.01 333.078 236.792 333.673 236.791 L 419.817 237.267 L 434.69 237.38 C 435.243 237.346 435.799 237.385 436.343 237.494 C 436.88 237.669 437.333 238.038 437.615 238.528 C 437.882 238.983 437.998 239.511 437.945 240.037 C 437.945 240.522 437.945 241.008 437.945 241.473 C 437.945 243.344 437.945 245.059 437.945 246.641 C 437.945 248.222 437.945 249.555 437.945 250.775 C 437.945 251.364 437.945 251.912 437.945 252.418 C 437.985 252.88 437.91 253.345 437.728 253.772 C 437.594 254.057 437.4 254.31 437.159 254.513 C 436.918 254.717 436.637 254.866 436.333 254.95 C 436.091 255.033 435.832 255.058 435.578 255.023 Z" stroke-linecap="round" />
</g>
		<g transform="matrix(1 0 0 1 3.11 -19.43)"  >
<path style="stroke: none; stroke-width: 1; stroke-dasharray: none; stroke-linecap: butt; stroke-dashoffset: 0; stroke-linejoin: miter; stroke-miterlimit: 4; fill: rgb(76,175,79); fill-rule: nonzero; opacity: 1;" vector-effect="non-scaling-stroke"  transform=" translate(-363.2, -199.68)" d="M 387.515 197.514 L 338.899 197.293 L 338.878 201.851 L 387.495 202.072 L 387.515 197.514 Z" stroke-linecap="round" />
</g>
		<g transform="matrix(1 0 0 1 3.11 -19.43)"  >
<path style="stroke: none; stroke-width: 1; stroke-dasharray: none; stroke-linecap: butt; stroke-dashoffset: 0; stroke-linejoin: miter; stroke-miterlimit: 4; fill: rgb(255,255,255); fill-rule: nonzero; opacity: 0.2;" vector-effect="non-scaling-stroke"  transform=" translate(-363.2, -199.68)" d="M 387.515 197.514 L 338.899 197.293 L 338.878 201.851 L 387.495 202.072 L 387.515 197.514 Z" stroke-linecap="round" />
</g>
		<g transform="matrix(1 0 0 1 -18.91 27.32)"  >
<path style="stroke: none; stroke-width: 1; stroke-dasharray: none; stroke-linecap: butt; stroke-dashoffset: 0; stroke-linejoin: miter; stroke-miterlimit: 4; fill: rgb(76,175,79); fill-rule: nonzero; opacity: 1;" vector-effect="non-scaling-stroke"  transform=" translate(-341.17, -246.43)" d="M 343.295 246.589 C 343.264 247.005 343.113 247.402 342.858 247.733 C 342.604 248.063 342.258 248.311 341.864 248.447 C 341.47 248.582 341.044 248.599 340.641 248.495 C 340.237 248.391 339.873 248.171 339.593 247.862 C 339.313 247.553 339.13 247.168 339.067 246.756 C 339.004 246.344 339.063 245.923 339.237 245.544 C 339.411 245.165 339.693 244.846 340.046 244.626 C 340.4 244.405 340.811 244.294 341.228 244.305 C 341.804 244.337 342.344 244.595 342.731 245.022 C 343.117 245.45 343.32 246.013 343.295 246.589 Z" stroke-linecap="round" />
</g>
		<g transform="matrix(1 0 0 1 -12.33 27.51)"  >
<path style="stroke: none; stroke-width: 1; stroke-dasharray: none; stroke-linecap: butt; stroke-dashoffset: 0; stroke-linejoin: miter; stroke-miterlimit: 4; fill: rgb(76,175,79); fill-rule: nonzero; opacity: 1;" vector-effect="non-scaling-stroke"  transform=" translate(-347.75, -246.62)" d="M 349.878 246.62 C 349.899 246.911 349.859 247.204 349.761 247.479 C 349.664 247.755 349.511 248.007 349.312 248.22 C 349.112 248.434 348.871 248.604 348.603 248.721 C 348.336 248.837 348.047 248.897 347.755 248.897 C 347.462 248.897 347.174 248.837 346.906 248.721 C 346.638 248.604 346.397 248.434 346.198 248.22 C 345.998 248.007 345.845 247.755 345.748 247.479 C 345.65 247.204 345.61 246.911 345.631 246.62 C 345.61 246.329 345.65 246.036 345.748 245.761 C 345.845 245.486 345.998 245.233 346.198 245.02 C 346.397 244.806 346.638 244.636 346.906 244.519 C 347.174 244.403 347.462 244.343 347.755 244.343 C 348.047 244.343 348.336 244.403 348.603 244.519 C 348.871 244.636 349.112 244.806 349.312 245.02 C 349.511 245.233 349.664 245.486 349.761 245.761 C 349.859 246.036 349.899 246.329 349.878 246.62 Z" stroke-linecap="round" />
</g>
		<g transform="matrix(1 0 0 1 -5.74 27.38)"  >
<path style="stroke: none; stroke-width: 1; stroke-dasharray: none; stroke-linecap: butt; stroke-dashoffset: 0; stroke-linejoin: miter; stroke-miterlimit: 4; fill: rgb(76,175,79); fill-rule: nonzero; opacity: 1;" vector-effect="non-scaling-stroke"  transform=" translate(-354.35, -246.5)" d="M 356.472 246.651 C 356.442 247.067 356.29 247.464 356.036 247.795 C 355.781 248.125 355.435 248.373 355.041 248.509 C 354.647 248.644 354.222 248.661 353.818 248.557 C 353.414 248.453 353.05 248.233 352.77 247.924 C 352.491 247.615 352.308 247.23 352.245 246.818 C 352.181 246.406 352.24 245.985 352.415 245.606 C 352.589 245.227 352.87 244.908 353.224 244.688 C 353.578 244.467 353.989 244.356 354.405 244.367 C 354.98 244.402 355.519 244.66 355.905 245.087 C 356.291 245.514 356.495 246.076 356.472 246.651 Z" stroke-linecap="round" />
</g>
		<g transform="matrix(1 0 0 1 0.85 27.41)"  >
<path style="stroke: none; stroke-width: 1; stroke-dasharray: none; stroke-linecap: butt; stroke-dashoffset: 0; stroke-linejoin: miter; stroke-miterlimit: 4; fill: rgb(76,175,79); fill-rule: nonzero; opacity: 1;" vector-effect="non-scaling-stroke"  transform=" translate(-360.93, -246.53)" d="M 363.056 246.682 C 363.025 247.098 362.874 247.495 362.619 247.826 C 362.365 248.156 362.019 248.404 361.625 248.54 C 361.231 248.675 360.805 248.692 360.402 248.588 C 359.998 248.484 359.634 248.264 359.354 247.955 C 359.074 247.646 358.891 247.261 358.828 246.849 C 358.765 246.437 358.824 246.016 358.998 245.637 C 359.172 245.258 359.454 244.939 359.808 244.719 C 360.161 244.499 360.572 244.387 360.989 244.398 C 361.564 244.433 362.102 244.691 362.488 245.118 C 362.875 245.545 363.079 246.107 363.056 246.682 Z" stroke-linecap="round" />
</g>
		<g transform="matrix(1 0 0 1 7.43 27.44)"  >
<path style="stroke: none; stroke-width: 1; stroke-dasharray: none; stroke-linecap: butt; stroke-dashoffset: 0; stroke-linejoin: miter; stroke-miterlimit: 4; fill: rgb(76,175,79); fill-rule: nonzero; opacity: 1;" vector-effect="non-scaling-stroke"  transform=" translate(-367.51, -246.56)" d="M 369.64 246.703 C 369.611 247.119 369.461 247.518 369.207 247.85 C 368.954 248.181 368.609 248.431 368.215 248.568 C 367.821 248.705 367.395 248.724 366.99 248.621 C 366.586 248.518 366.221 248.298 365.94 247.989 C 365.659 247.681 365.476 247.296 365.412 246.884 C 365.348 246.471 365.406 246.049 365.58 245.67 C 365.754 245.291 366.036 244.971 366.39 244.75 C 366.744 244.53 367.155 244.418 367.572 244.429 C 368.145 244.464 368.682 244.721 369.068 245.146 C 369.454 245.57 369.659 246.129 369.64 246.703 Z" stroke-linecap="round" />
</g>
		<g transform="matrix(1 0 0 1 14.02 27.48)"  >
<path style="stroke: none; stroke-width: 1; stroke-dasharray: none; stroke-linecap: butt; stroke-dashoffset: 0; stroke-linejoin: miter; stroke-miterlimit: 4; fill: rgb(76,175,79); fill-rule: nonzero; opacity: 1;" vector-effect="non-scaling-stroke"  transform=" translate(-374.11, -246.59)" d="M 376.233 246.734 C 376.205 247.148 376.057 247.545 375.806 247.876 C 375.555 248.206 375.213 248.457 374.821 248.596 C 374.43 248.734 374.007 248.756 373.604 248.657 C 373.2 248.559 372.835 248.344 372.552 248.041 C 372.269 247.737 372.081 247.357 372.011 246.948 C 371.941 246.538 371.992 246.118 372.158 245.737 C 372.324 245.357 372.598 245.033 372.946 244.806 C 373.293 244.579 373.7 244.459 374.115 244.46 C 374.697 244.482 375.247 244.733 375.644 245.159 C 376.041 245.585 376.253 246.152 376.233 246.734 Z" stroke-linecap="round" />
</g>
		<g transform="matrix(1 0 0 1 20.61 27.65)"  >
<path style="stroke: none; stroke-width: 1; stroke-dasharray: none; stroke-linecap: butt; stroke-dashoffset: 0; stroke-linejoin: miter; stroke-miterlimit: 4; fill: rgb(76,175,79); fill-rule: nonzero; opacity: 1;" vector-effect="non-scaling-stroke"  transform=" translate(-380.69, -246.76)" d="M 382.817 246.765 C 382.837 247.056 382.797 247.349 382.7 247.624 C 382.602 247.899 382.449 248.152 382.25 248.365 C 382.051 248.579 381.81 248.749 381.542 248.866 C 381.274 248.982 380.985 249.042 380.693 249.042 C 380.401 249.042 380.112 248.982 379.844 248.866 C 379.576 248.749 379.335 248.579 379.136 248.365 C 378.937 248.152 378.784 247.899 378.686 247.624 C 378.589 247.349 378.549 247.056 378.569 246.765 C 378.549 246.473 378.589 246.181 378.686 245.906 C 378.784 245.63 378.937 245.378 379.136 245.164 C 379.335 244.951 379.576 244.78 379.844 244.664 C 380.112 244.548 380.401 244.487 380.693 244.487 C 380.985 244.487 381.274 244.548 381.542 244.664 C 381.81 244.78 382.051 244.951 382.25 245.164 C 382.449 245.378 382.602 245.63 382.7 245.906 C 382.797 246.181 382.837 246.473 382.817 246.765 Z" stroke-linecap="round" />
</g>
		<g transform="matrix(1 0 0 1 27.19 27.54)"  >
<path style="stroke: none; stroke-width: 1; stroke-dasharray: none; stroke-linecap: butt; stroke-dashoffset: 0; stroke-linejoin: miter; stroke-miterlimit: 4; fill: rgb(76,175,79); fill-rule: nonzero; opacity: 1;" vector-effect="non-scaling-stroke"  transform=" translate(-387.27, -246.65)" d="M 389.401 246.796 C 389.372 247.21 389.224 247.607 388.973 247.938 C 388.722 248.268 388.38 248.519 387.989 248.658 C 387.597 248.796 387.174 248.818 386.771 248.719 C 386.367 248.621 386.002 248.406 385.719 248.103 C 385.436 247.799 385.248 247.419 385.178 247.01 C 385.108 246.6 385.159 246.18 385.325 245.799 C 385.491 245.419 385.765 245.095 386.113 244.868 C 386.46 244.641 386.867 244.521 387.282 244.522 C 387.864 244.544 388.414 244.795 388.811 245.221 C 389.208 245.647 389.42 246.214 389.401 246.796 Z" stroke-linecap="round" />
</g>
		<g transform="matrix(1 0 0 1 33.77 27.57)"  >
<path style="stroke: none; stroke-width: 1; stroke-dasharray: none; stroke-linecap: butt; stroke-dashoffset: 0; stroke-linejoin: miter; stroke-miterlimit: 4; fill: rgb(76,175,79); fill-rule: nonzero; opacity: 1;" vector-effect="non-scaling-stroke"  transform=" translate(-393.86, -246.68)" d="M 395.984 246.827 C 395.956 247.243 395.805 247.642 395.552 247.974 C 395.299 248.305 394.954 248.555 394.559 248.692 C 394.165 248.829 393.74 248.848 393.335 248.745 C 392.931 248.642 392.565 248.422 392.285 248.113 C 392.004 247.805 391.82 247.42 391.756 247.008 C 391.692 246.595 391.751 246.173 391.925 245.794 C 392.099 245.415 392.38 245.095 392.734 244.874 C 393.089 244.654 393.5 244.542 393.917 244.553 C 394.49 244.588 395.027 244.845 395.413 245.27 C 395.799 245.694 396.004 246.253 395.984 246.827 Z" stroke-linecap="round" />
</g>
		<g transform="matrix(1 0 0 1 -18.91 27.32)"  >
<path style="stroke: none; stroke-width: 1; stroke-dasharray: none; stroke-linecap: butt; stroke-dashoffset: 0; stroke-linejoin: miter; stroke-miterlimit: 4; fill: rgb(255,255,255); fill-rule: nonzero; opacity: 0.2;" vector-effect="non-scaling-stroke"  transform=" translate(-341.17, -246.43)" d="M 343.295 246.589 C 343.264 247.005 343.113 247.402 342.858 247.733 C 342.604 248.063 342.258 248.311 341.864 248.447 C 341.47 248.582 341.044 248.599 340.641 248.495 C 340.237 248.391 339.873 248.171 339.593 247.862 C 339.313 247.553 339.13 247.168 339.067 246.756 C 339.004 246.344 339.063 245.923 339.237 245.544 C 339.411 245.165 339.693 244.846 340.046 244.626 C 340.4 244.405 340.811 244.294 341.228 244.305 C 341.804 244.337 342.344 244.595 342.731 245.022 C 343.117 245.45 343.32 246.013 343.295 246.589 Z" stroke-linecap="round" />
</g>
		<g transform="matrix(1 0 0 1 -12.33 27.51)"  >
<path style="stroke: none; stroke-width: 1; stroke-dasharray: none; stroke-linecap: butt; stroke-dashoffset: 0; stroke-linejoin: miter; stroke-miterlimit: 4; fill: rgb(255,255,255); fill-rule: nonzero; opacity: 0.2;" vector-effect="non-scaling-stroke"  transform=" translate(-347.75, -246.62)" d="M 349.878 246.62 C 349.899 246.911 349.859 247.204 349.761 247.479 C 349.664 247.755 349.511 248.007 349.312 248.22 C 349.112 248.434 348.871 248.604 348.603 248.721 C 348.336 248.837 348.047 248.897 347.755 248.897 C 347.462 248.897 347.174 248.837 346.906 248.721 C 346.638 248.604 346.397 248.434 346.198 248.22 C 345.998 248.007 345.845 247.755 345.748 247.479 C 345.65 247.204 345.61 246.911 345.631 246.62 C 345.61 246.329 345.65 246.036 345.748 245.761 C 345.845 245.486 345.998 245.233 346.198 245.02 C 346.397 244.806 346.638 244.636 346.906 244.519 C 347.174 244.403 347.462 244.343 347.755 244.343 C 348.047 244.343 348.336 244.403 348.603 244.519 C 348.871 244.636 349.112 244.806 349.312 245.02 C 349.511 245.233 349.664 245.486 349.761 245.761 C 349.859 246.036 349.899 246.329 349.878 246.62 Z" stroke-linecap="round" />
</g>
		<g transform="matrix(1 0 0 1 -5.74 27.38)"  >
<path style="stroke: none; stroke-width: 1; stroke-dasharray: none; stroke-linecap: butt; stroke-dashoffset: 0; stroke-linejoin: miter; stroke-miterlimit: 4; fill: rgb(255,255,255); fill-rule: nonzero; opacity: 0.2;" vector-effect="non-scaling-stroke"  transform=" translate(-354.35, -246.5)" d="M 356.472 246.651 C 356.442 247.067 356.29 247.464 356.036 247.795 C 355.781 248.125 355.435 248.373 355.041 248.509 C 354.647 248.644 354.222 248.661 353.818 248.557 C 353.414 248.453 353.05 248.233 352.77 247.924 C 352.491 247.615 352.308 247.23 352.245 246.818 C 352.181 246.406 352.24 245.985 352.415 245.606 C 352.589 245.227 352.87 244.908 353.224 244.688 C 353.578 244.467 353.989 244.356 354.405 244.367 C 354.98 244.402 355.519 244.66 355.905 245.087 C 356.291 245.514 356.495 246.076 356.472 246.651 Z" stroke-linecap="round" />
</g>
		<g transform="matrix(1 0 0 1 0.85 27.41)"  >
<path style="stroke: none; stroke-width: 1; stroke-dasharray: none; stroke-linecap: butt; stroke-dashoffset: 0; stroke-linejoin: miter; stroke-miterlimit: 4; fill: rgb(255,255,255); fill-rule: nonzero; opacity: 0.2;" vector-effect="non-scaling-stroke"  transform=" translate(-360.93, -246.53)" d="M 363.056 246.682 C 363.025 247.098 362.874 247.495 362.619 247.826 C 362.365 248.156 362.019 248.404 361.625 248.54 C 361.231 248.675 360.805 248.692 360.402 248.588 C 359.998 248.484 359.634 248.264 359.354 247.955 C 359.074 247.646 358.891 247.261 358.828 246.849 C 358.765 246.437 358.824 246.016 358.998 245.637 C 359.172 245.258 359.454 244.939 359.808 244.719 C 360.161 244.499 360.572 244.387 360.989 244.398 C 361.564 244.433 362.102 244.691 362.488 245.118 C 362.875 245.545 363.079 246.107 363.056 246.682 Z" stroke-linecap="round" />
</g>
		<g transform="matrix(1 0 0 1 7.43 27.44)"  >
<path style="stroke: none; stroke-width: 1; stroke-dasharray: none; stroke-linecap: butt; stroke-dashoffset: 0; stroke-linejoin: miter; stroke-miterlimit: 4; fill: rgb(255,255,255); fill-rule: nonzero; opacity: 0.2;" vector-effect="non-scaling-stroke"  transform=" translate(-367.51, -246.56)" d="M 369.64 246.703 C 369.611 247.119 369.461 247.518 369.207 247.85 C 368.954 248.181 368.609 248.431 368.215 248.568 C 367.821 248.705 367.395 248.724 366.99 248.621 C 366.586 248.518 366.221 248.298 365.94 247.989 C 365.659 247.681 365.476 247.296 365.412 246.884 C 365.348 246.471 365.406 246.049 365.58 245.67 C 365.754 245.291 366.036 244.971 366.39 244.75 C 366.744 244.53 367.155 244.418 367.572 244.429 C 368.145 244.464 368.682 244.721 369.068 245.146 C 369.454 245.57 369.659 246.129 369.64 246.703 Z" stroke-linecap="round" />
</g>
		<g transform="matrix(1 0 0 1 14.02 27.48)"  >
<path style="stroke: none; stroke-width: 1; stroke-dasharray: none; stroke-linecap: butt; stroke-dashoffset: 0; stroke-linejoin: miter; stroke-miterlimit: 4; fill: rgb(255,255,255); fill-rule: nonzero; opacity: 0.2;" vector-effect="non-scaling-stroke"  transform=" translate(-374.11, -246.59)" d="M 376.233 246.734 C 376.205 247.148 376.056 247.545 375.806 247.876 C 375.555 248.206 375.213 248.457 374.821 248.596 C 374.43 248.734 374.007 248.756 373.604 248.657 C 373.2 248.559 372.835 248.344 372.552 248.041 C 372.269 247.737 372.081 247.357 372.011 246.948 C 371.941 246.538 371.992 246.118 372.158 245.737 C 372.324 245.357 372.598 245.033 372.945 244.806 C 373.293 244.579 373.699 244.459 374.115 244.46 C 374.697 244.482 375.247 244.733 375.644 245.159 C 376.041 245.585 376.253 246.152 376.233 246.734 Z" stroke-linecap="round" />
</g>
		<g transform="matrix(1 0 0 1 20.61 27.65)"  >
<path style="stroke: none; stroke-width: 1; stroke-dasharray: none; stroke-linecap: butt; stroke-dashoffset: 0; stroke-linejoin: miter; stroke-miterlimit: 4; fill: rgb(255,255,255); fill-rule: nonzero; opacity: 0.2;" vector-effect="non-scaling-stroke"  transform=" translate(-380.69, -246.76)" d="M 382.817 246.765 C 382.837 247.056 382.797 247.349 382.7 247.624 C 382.602 247.899 382.449 248.152 382.25 248.365 C 382.051 248.579 381.81 248.749 381.542 248.866 C 381.274 248.982 380.985 249.042 380.693 249.042 C 380.401 249.042 380.112 248.982 379.844 248.866 C 379.576 248.749 379.335 248.579 379.136 248.365 C 378.937 248.152 378.784 247.899 378.686 247.624 C 378.589 247.349 378.549 247.056 378.569 246.765 C 378.549 246.473 378.589 246.181 378.686 245.906 C 378.784 245.63 378.937 245.378 379.136 245.164 C 379.335 244.951 379.576 244.78 379.844 244.664 C 380.112 244.548 380.401 244.487 380.693 244.487 C 380.985 244.487 381.274 244.548 381.542 244.664 C 381.81 244.78 382.051 244.951 382.25 245.164 C 382.449 245.378 382.602 245.63 382.7 245.906 C 382.797 246.181 382.837 246.473 382.817 246.765 Z" stroke-linecap="round" />
</g>
		<g transform="matrix(1 0 0 1 27.19 27.54)"  >
<path style="stroke: none; stroke-width: 1; stroke-dasharray: none; stroke-linecap: butt; stroke-dashoffset: 0; stroke-linejoin: miter; stroke-miterlimit: 4; fill: rgb(255,255,255); fill-rule: nonzero; opacity: 0.2;" vector-effect="non-scaling-stroke"  transform=" translate(-387.27, -246.65)" d="M 389.401 246.796 C 389.372 247.21 389.224 247.607 388.973 247.938 C 388.722 248.268 388.38 248.519 387.989 248.658 C 387.597 248.796 387.174 248.818 386.771 248.719 C 386.367 248.621 386.002 248.406 385.719 248.103 C 385.436 247.799 385.248 247.419 385.178 247.01 C 385.108 246.601 385.159 246.18 385.325 245.799 C 385.491 245.419 385.765 245.095 386.113 244.868 C 386.46 244.641 386.867 244.521 387.282 244.522 C 387.864 244.544 388.414 244.795 388.811 245.221 C 389.208 245.647 389.42 246.214 389.401 246.796 Z" stroke-linecap="round" />
</g>
		<g transform="matrix(1 0 0 1 33.77 27.57)"  >
<path style="stroke: none; stroke-width: 1; stroke-dasharray: none; stroke-linecap: butt; stroke-dashoffset: 0; stroke-linejoin: miter; stroke-miterlimit: 4; fill: rgb(255,255,255); fill-rule: nonzero; opacity: 0.2;" vector-effect="non-scaling-stroke"  transform=" translate(-393.86, -246.68)" d="M 395.984 246.827 C 395.956 247.243 395.805 247.642 395.552 247.974 C 395.299 248.305 394.954 248.555 394.559 248.692 C 394.165 248.829 393.74 248.848 393.335 248.745 C 392.931 248.642 392.565 248.422 392.285 248.113 C 392.004 247.805 391.82 247.42 391.756 247.008 C 391.692 246.595 391.751 246.173 391.925 245.794 C 392.099 245.415 392.38 245.095 392.734 244.874 C 393.089 244.654 393.5 244.542 393.917 244.553 C 394.49 244.588 395.027 244.845 395.413 245.27 C 395.799 245.694 396.004 246.253 395.984 246.827 Z" stroke-linecap="round" />
</g>
		<g transform="matrix(1 0 0 1 25.13 -121.69)"  >
<path style="stroke: none; stroke-width: 1; stroke-dasharray: none; stroke-linecap: butt; stroke-dashoffset: 0; stroke-linejoin: miter; stroke-miterlimit: 4; fill: rgb(76,175,79); fill-rule: nonzero; opacity: 1;" vector-effect="non-scaling-stroke"  transform=" translate(-385.22, -97.42)" d="M 386.631 97.6269 C 387.349 97.3107 387.958 96.7904 388.382 96.1307 C 388.807 95.471 389.028 94.701 389.018 93.9165 C 389.045 93.4066 388.968 92.8966 388.791 92.4175 C 388.614 91.9384 388.342 91.5003 387.99 91.1299 C 387.639 90.7595 387.216 90.4645 386.746 90.2629 C 386.277 90.0614 385.772 89.9574 385.261 89.9574 C 384.751 89.9574 384.245 90.0614 383.776 90.2629 C 383.307 90.4645 382.884 90.7595 382.532 91.1299 C 382.181 91.5003 381.908 91.9384 381.732 92.4175 C 381.555 92.8966 381.478 93.4066 381.504 93.9165 C 381.489 94.7088 381.708 95.488 382.135 96.1558 C 382.562 96.8235 383.177 97.3498 383.902 97.6683 C 378.114 98.5364 378.373 104.82 378.373 104.82 L 392.057 104.882 C 392.057 104.882 392.377 98.4847 386.631 97.6269 Z" stroke-linecap="round" />
</g>
		<g transform="matrix(1 0 0 1 25.13 -121.69)"  >
<path style="stroke: none; stroke-width: 1; stroke-dasharray: none; stroke-linecap: butt; stroke-dashoffset: 0; stroke-linejoin: miter; stroke-miterlimit: 4; fill: rgb(0,0,0); fill-rule: nonzero; opacity: 0.1;" vector-effect="non-scaling-stroke"  transform=" translate(-385.22, -97.42)" d="M 386.631 97.6269 C 387.349 97.3107 387.958 96.7904 388.382 96.1307 C 388.807 95.471 389.028 94.701 389.018 93.9165 C 389.045 93.4066 388.968 92.8966 388.791 92.4175 C 388.614 91.9384 388.342 91.5003 387.99 91.1299 C 387.639 90.7595 387.216 90.4645 386.746 90.2629 C 386.277 90.0614 385.772 89.9574 385.261 89.9574 C 384.751 89.9574 384.245 90.0614 383.776 90.2629 C 383.307 90.4645 382.884 90.7595 382.532 91.1299 C 382.181 91.5003 381.908 91.9384 381.732 92.4175 C 381.555 92.8966 381.478 93.4066 381.504 93.9165 C 381.489 94.7088 381.708 95.488 382.135 96.1558 C 382.562 96.8235 383.177 97.3498 383.902 97.6683 C 378.114 98.5364 378.373 104.82 378.373 104.82 L 392.057 104.882 C 392.057 104.882 392.377 98.4847 386.631 97.6269 Z" stroke-linecap="round" />
</g>
		<g transform="matrix(1 0 0 1 24.38 -107.37)"  >
<path style="stroke: none; stroke-width: 1; stroke-dasharray: none; stroke-linecap: butt; stroke-dashoffset: 0; stroke-linejoin: miter; stroke-miterlimit: 4; fill: rgb(76,175,79); fill-rule: nonzero; opacity: 1;" vector-effect="non-scaling-stroke"  transform=" translate(-384.47, -111.74)" d="M 408.867 108.935 L 360.095 108.714 L 360.068 114.543 L 408.84 114.764 L 408.867 108.935 Z" stroke-linecap="round" />
</g>
		<g transform="matrix(1 0 0 1 24.38 -107.37)"  >
<path style="stroke: none; stroke-width: 1; stroke-dasharray: none; stroke-linecap: butt; stroke-dashoffset: 0; stroke-linejoin: miter; stroke-miterlimit: 4; fill: rgb(255,255,255); fill-rule: nonzero; opacity: 0.2;" vector-effect="non-scaling-stroke"  transform=" translate(-384.47, -111.74)" d="M 408.867 108.935 L 360.095 108.714 L 360.068 114.543 L 408.84 114.764 L 408.867 108.935 Z" stroke-linecap="round" />
</g>
		<g transform="matrix(1 0 0 1 -130.46 -49.71)"  >
<path style="stroke: none; stroke-width: 1; stroke-dasharray: none; stroke-linecap: butt; stroke-dashoffset: 0; stroke-linejoin: miter; stroke-miterlimit: 4; fill: rgb(76,175,79); fill-rule: nonzero; opacity: 1;" vector-effect="non-scaling-stroke"  transform=" translate(-229.63, -169.41)" d="M 229.566 139.144 L 229.08 139.144 L 227.674 139.247 C 226.914 139.293 226.157 139.393 225.411 139.547 C 224.927 139.615 224.448 139.708 223.974 139.826 L 222.372 140.27 C 219.646 141.107 217.073 142.381 214.755 144.043 C 211.693 146.265 209.136 149.112 207.252 152.393 C 206.145 154.285 205.264 156.301 204.627 158.398 C 203.957 160.678 203.572 163.032 203.479 165.406 C 203.418 166.653 203.439 167.903 203.541 169.147 C 203.541 169.777 203.717 170.408 203.8 171.049 C 203.869 171.695 203.99 172.334 204.162 172.961 C 205.091 177.108 206.977 180.981 209.668 184.27 C 212.36 187.559 215.783 190.174 219.664 191.905 C 222.474 193.117 225.485 193.794 228.542 193.9 C 231.701 194.074 234.862 193.62 237.844 192.567 L 238.754 192.226 L 238.878 192.226 L 238.981 192.288 L 252.014 198.902 L 251.631 199.233 C 250.236 194.913 248.893 190.727 247.59 186.707 L 247.59 186.552 L 247.704 186.438 C 250.866 183.253 253.213 179.354 254.546 175.069 C 255.754 171.152 256.106 167.021 255.58 162.956 C 255.111 159.343 253.95 155.855 252.159 152.683 C 250.615 149.958 248.623 147.512 246.267 145.448 C 244.324 143.815 242.173 142.445 239.87 141.376 C 238.128 140.625 236.313 140.053 234.454 139.671 L 232.387 139.33 L 230.889 139.216 L 229.979 139.154 L 229.669 139.154 C 229.772 139.143 229.876 139.143 229.979 139.154 L 230.899 139.154 L 232.398 139.216 L 234.465 139.516 C 236.346 139.87 238.186 140.421 239.953 141.159 C 242.295 142.216 244.485 143.582 246.464 145.221 C 248.863 147.276 250.897 149.722 252.479 152.455 C 254.321 155.662 255.518 159.197 256.003 162.863 C 256.574 166.991 256.246 171.193 255.042 175.183 C 253.7 179.556 251.317 183.539 248.097 186.789 L 248.159 186.521 C 249.461 190.541 250.815 194.727 252.221 199.037 L 252.417 199.667 L 251.828 199.367 L 238.795 192.763 L 239.022 192.763 L 238.092 193.104 C 235.053 194.174 231.833 194.637 228.615 194.468 C 225.491 194.349 222.417 193.648 219.551 192.401 C 214.083 190.06 209.534 185.99 206.601 180.815 C 205.251 178.426 204.265 175.848 203.676 173.167 C 203.514 172.524 203.394 171.872 203.314 171.214 C 203.231 170.563 203.097 169.922 203.066 169.281 C 202.786 165.604 203.175 161.906 204.213 158.367 C 204.866 156.241 205.772 154.201 206.911 152.29 C 208.839 148.978 211.45 146.114 214.569 143.888 C 216.925 142.222 219.541 140.957 222.31 140.146 L 223.933 139.733 C 224.411 139.622 224.893 139.536 225.38 139.474 C 226.134 139.335 226.897 139.252 227.664 139.226 L 229.08 139.175 C 229.241 139.153 229.403 139.143 229.566 139.144 Z" stroke-linecap="round" />
</g>
		<g transform="matrix(1 0 0 1 -132.63 -54.05)"  >
<path style="stroke: none; stroke-width: 1; stroke-dasharray: none; stroke-linecap: butt; stroke-dashoffset: 0; stroke-linejoin: miter; stroke-miterlimit: 4; fill: rgb(76,175,79); fill-rule: nonzero; opacity: 1;" vector-effect="non-scaling-stroke"  transform=" translate(-227.46, -165.06)" d="M 235.457 163.245 L 233.545 163.245 L 229.411 157.437 L 229.411 153.623 C 229.411 153.623 226.455 153.437 226.806 158.429 C 227.158 163.421 226.806 162.15 226.806 162.15 C 226.806 162.15 220.533 162.15 220.016 162.718 C 219.499 163.287 219.468 169.343 219.396 172.723 C 219.356 173.538 219.59 174.342 220.06 175.009 C 220.53 175.675 221.209 176.166 221.99 176.402 C 222.209 176.463 222.435 176.494 222.662 176.495 C 224.233 176.495 232.222 175.224 232.222 175.224 L 235.519 175.224 L 235.457 163.245 Z" stroke-linecap="round" />
</g>
		<g transform="matrix(1 0 0 1 -121.38 -50.36)"  >
<path style="stroke: none; stroke-width: 1; stroke-dasharray: none; stroke-linecap: butt; stroke-dashoffset: 0; stroke-linejoin: miter; stroke-miterlimit: 4; fill: rgb(76,175,79); fill-rule: nonzero; opacity: 1;" vector-effect="non-scaling-stroke"  transform=" translate(-238.7, -168.75)" d="M 240.924 162.222 L 239.746 175.286 L 236.48 175.286 L 236.48 162.491 L 240.924 162.222 Z" stroke-linecap="round" />
</g>
		<g transform="matrix(1 0 0 1 -82.85 207)"  >
<path style="stroke: none; stroke-width: 1; stroke-dasharray: none; stroke-linecap: butt; stroke-dashoffset: 0; stroke-linejoin: miter; stroke-miterlimit: 4; fill: rgb(76,175,79); fill-rule: nonzero; opacity: 1;" vector-effect="non-scaling-stroke"  transform=" translate(-277.23, -426.12)" d="M 279.878 428.18 L 279.878 419.343 L 264.034 419.229 L 263.899 432.593 L 264.881 432.665 C 269.253 432.944 287.123 433.358 290.058 432.448 C 293.324 431.435 279.878 428.18 279.878 428.18 Z" stroke-linecap="round" />
</g>
		<g transform="matrix(1 0 0 1 -82.89 212.51)"  >
<path style="stroke: none; stroke-width: 1; stroke-dasharray: none; stroke-linecap: butt; stroke-dashoffset: 0; stroke-linejoin: miter; stroke-miterlimit: 4; fill: rgb(38,50,56); fill-rule: nonzero; opacity: 1;" vector-effect="non-scaling-stroke"  transform=" translate(-277.19, -431.62)" d="M 290.43 431.621 C 290.43 431.766 284.498 431.89 277.191 431.89 C 269.883 431.89 263.951 431.766 263.951 431.621 C 263.951 431.477 269.883 431.353 277.191 431.353 C 284.498 431.353 290.43 431.477 290.43 431.621 Z" stroke-linecap="round" />
</g>
		<g transform="matrix(1 0 0 1 -79.35 210.05)"  >
<path style="stroke: none; stroke-width: 1; stroke-dasharray: none; stroke-linecap: butt; stroke-dashoffset: 0; stroke-linejoin: miter; stroke-miterlimit: 4; fill: rgb(38,50,56); fill-rule: nonzero; opacity: 1;" vector-effect="non-scaling-stroke"  transform=" translate(-280.73, -429.16)" d="M 280.157 429.988 C 280.022 429.916 280.157 429.451 280.477 428.955 C 280.798 428.459 281.232 428.252 281.335 428.355 C 281.438 428.459 281.221 428.851 280.911 429.275 C 280.601 429.699 280.291 430.061 280.157 429.988 Z" stroke-linecap="round" />
</g>
		<g transform="matrix(1 0 0 1 -78.4 210.49)"  >
<path style="stroke: none; stroke-width: 1; stroke-dasharray: none; stroke-linecap: butt; stroke-dashoffset: 0; stroke-linejoin: miter; stroke-miterlimit: 4; fill: rgb(38,50,56); fill-rule: nonzero; opacity: 1;" vector-effect="non-scaling-stroke"  transform=" translate(-281.69, -429.6)" d="M 281.17 430.567 C 281.025 430.567 281.097 429.988 281.407 429.441 C 281.717 428.893 282.131 428.562 282.244 428.645 C 282.358 428.727 282.172 429.192 281.883 429.678 C 281.593 430.164 281.304 430.619 281.17 430.567 Z" stroke-linecap="round" />
</g>
		<g transform="matrix(1 0 0 1 -93.64 210.92)"  >
<path style="stroke: none; stroke-width: 1; stroke-dasharray: none; stroke-linecap: butt; stroke-dashoffset: 0; stroke-linejoin: miter; stroke-miterlimit: 4; fill: rgb(38,50,56); fill-rule: nonzero; opacity: 1;" vector-effect="non-scaling-stroke"  transform=" translate(-266.45, -430.03)" d="M 268.726 431.58 C 268.664 431.58 268.426 431.394 268.085 431.001 C 267.669 430.496 267.205 430.033 266.7 429.616 C 266.204 429.22 265.612 428.96 264.985 428.862 C 264.499 428.8 264.189 428.862 264.158 428.8 C 264.127 428.738 264.426 428.521 264.995 428.479 C 265.745 428.464 266.477 428.712 267.062 429.182 C 267.61 429.629 268.072 430.172 268.426 430.784 C 268.664 431.239 268.788 431.539 268.726 431.58 Z" stroke-linecap="round" />
</g>
		<g transform="matrix(1 0 0 1 -80.64 209.54)"  >
<path style="stroke: none; stroke-width: 1; stroke-dasharray: none; stroke-linecap: butt; stroke-dashoffset: 0; stroke-linejoin: miter; stroke-miterlimit: 4; fill: rgb(38,50,56); fill-rule: nonzero; opacity: 1;" vector-effect="non-scaling-stroke"  transform=" translate(-279.45, -428.65)" d="M 280.208 428.324 C 280.281 428.448 280.012 428.758 279.557 428.924 C 279.103 429.089 278.699 429.027 278.679 428.924 C 278.658 428.82 278.979 428.603 279.371 428.459 C 279.764 428.314 280.126 428.2 280.208 428.324 Z" stroke-linecap="round" />
</g>
		<g transform="matrix(1 0 0 1 -81.08 208.37)"  >
<path style="stroke: none; stroke-width: 1; stroke-dasharray: none; stroke-linecap: butt; stroke-dashoffset: 0; stroke-linejoin: miter; stroke-miterlimit: 4; fill: rgb(38,50,56); fill-rule: nonzero; opacity: 1;" vector-effect="non-scaling-stroke"  transform=" translate(-279.01, -427.48)" d="M 279.96 427.467 C 279.96 427.622 279.547 427.746 279.009 427.756 C 278.472 427.766 278.048 427.642 278.059 427.498 C 278.069 427.353 278.493 427.218 279.009 427.208 C 279.526 427.198 279.94 427.322 279.96 427.467 Z" stroke-linecap="round" />
</g>
		<g transform="matrix(1 0 0 1 -43.83 206.98)"  >
<path style="stroke: none; stroke-width: 1; stroke-dasharray: none; stroke-linecap: butt; stroke-dashoffset: 0; stroke-linejoin: miter; stroke-miterlimit: 4; fill: rgb(76,175,79); fill-rule: nonzero; opacity: 1;" vector-effect="non-scaling-stroke"  transform=" translate(-316.25, -426.09)" d="M 318.893 428.18 L 318.893 419.343 L 303.049 419.229 L 302.915 432.458 L 303.897 432.531 C 308.269 432.81 326.149 433.358 329.074 432.448 C 332.339 431.435 318.893 428.18 318.893 428.18 Z" stroke-linecap="round" />
</g>
		<g transform="matrix(1 0 0 1 -43.87 212.53)"  >
<path style="stroke: none; stroke-width: 1; stroke-dasharray: none; stroke-linecap: butt; stroke-dashoffset: 0; stroke-linejoin: miter; stroke-miterlimit: 4; fill: rgb(38,50,56); fill-rule: nonzero; opacity: 1;" vector-effect="non-scaling-stroke"  transform=" translate(-316.21, -431.64)" d="M 329.446 431.642 C 329.446 431.787 323.523 431.911 316.206 431.911 C 308.889 431.911 302.977 431.787 302.977 431.642 C 302.977 431.497 308.899 431.373 316.206 431.373 C 323.513 431.373 329.446 431.497 329.446 431.642 Z" stroke-linecap="round" />
</g>
		<g transform="matrix(1 0 0 1 -40.33 210.05)"  >
<path style="stroke: none; stroke-width: 1; stroke-dasharray: none; stroke-linecap: butt; stroke-dashoffset: 0; stroke-linejoin: miter; stroke-miterlimit: 4; fill: rgb(38,50,56); fill-rule: nonzero; opacity: 1;" vector-effect="non-scaling-stroke"  transform=" translate(-319.75, -429.16)" d="M 319.172 429.988 C 319.048 429.916 319.172 429.451 319.493 428.955 C 319.813 428.459 320.247 428.252 320.351 428.355 C 320.454 428.459 320.237 428.851 319.927 429.275 C 319.617 429.699 319.307 430.061 319.172 429.988 Z" stroke-linecap="round" />
</g>
		<g transform="matrix(1 0 0 1 -39.37 210.49)"  >
<path style="stroke: none; stroke-width: 1; stroke-dasharray: none; stroke-linecap: butt; stroke-dashoffset: 0; stroke-linejoin: miter; stroke-miterlimit: 4; fill: rgb(38,50,56); fill-rule: nonzero; opacity: 1;" vector-effect="non-scaling-stroke"  transform=" translate(-320.71, -429.6)" d="M 320.185 430.567 C 320.051 430.567 320.113 429.988 320.433 429.441 C 320.754 428.893 321.157 428.562 321.27 428.645 C 321.384 428.727 321.188 429.192 320.898 429.678 C 320.609 430.164 320.33 430.619 320.185 430.567 Z" stroke-linecap="round" />
</g>
		<g transform="matrix(1 0 0 1 -54.62 210.92)"  >
<path style="stroke: none; stroke-width: 1; stroke-dasharray: none; stroke-linecap: butt; stroke-dashoffset: 0; stroke-linejoin: miter; stroke-miterlimit: 4; fill: rgb(38,50,56); fill-rule: nonzero; opacity: 1;" vector-effect="non-scaling-stroke"  transform=" translate(-305.46, -430.03)" d="M 307.742 431.58 C 307.68 431.58 307.452 431.394 307.101 431.001 C 306.684 430.496 306.221 430.033 305.716 429.616 C 305.219 429.22 304.628 428.96 304 428.862 C 303.525 428.8 303.204 428.862 303.173 428.8 C 303.142 428.738 303.442 428.521 304.011 428.479 C 304.761 428.464 305.493 428.712 306.078 429.182 C 306.629 429.626 307.091 430.169 307.442 430.784 C 307.68 431.239 307.804 431.539 307.742 431.58 Z" stroke-linecap="round" />
</g>
		<g transform="matrix(1 0 0 1 -41.62 209.54)"  >
<path style="stroke: none; stroke-width: 1; stroke-dasharray: none; stroke-linecap: butt; stroke-dashoffset: 0; stroke-linejoin: miter; stroke-miterlimit: 4; fill: rgb(38,50,56); fill-rule: nonzero; opacity: 1;" vector-effect="non-scaling-stroke"  transform=" translate(-318.46, -428.65)" d="M 319.224 428.324 C 319.296 428.448 319.028 428.758 318.573 428.924 C 318.118 429.089 317.715 429.027 317.694 428.924 C 317.674 428.82 317.994 428.603 318.387 428.459 C 318.78 428.314 319.141 428.2 319.224 428.324 Z" stroke-linecap="round" />
</g>
		<g transform="matrix(1 0 0 1 -42.03 208.37)"  >
<path style="stroke: none; stroke-width: 1; stroke-dasharray: none; stroke-linecap: butt; stroke-dashoffset: 0; stroke-linejoin: miter; stroke-miterlimit: 4; fill: rgb(38,50,56); fill-rule: nonzero; opacity: 1;" vector-effect="non-scaling-stroke"  transform=" translate(-318.05, -427.48)" d="M 318.997 427.467 C 318.997 427.622 318.583 427.746 318.046 427.756 C 317.508 427.766 317.095 427.642 317.105 427.498 C 317.116 427.353 317.529 427.218 318.046 427.208 C 318.563 427.198 318.997 427.322 318.997 427.467 Z" stroke-linecap="round" />
</g>
		<g transform="matrix(1 0 0 1 -56.53 10.32)"  >
<path style="stroke: none; stroke-width: 1; stroke-dasharray: none; stroke-linecap: butt; stroke-dashoffset: 0; stroke-linejoin: miter; stroke-miterlimit: 4; fill: rgb(255,190,157); fill-rule: nonzero; opacity: 1;" vector-effect="non-scaling-stroke"  transform=" translate(-303.56, -229.43)" d="M 377.267 165.767 C 376.853 165.344 375.83 165.55 375.83 165.55 C 375.933 164.955 375.933 164.347 375.83 163.752 C 375.644 163.173 374.342 163.287 374.342 163.287 C 374.282 162.799 374.282 162.307 374.342 161.819 C 374.352 161.711 374.329 161.603 374.276 161.508 C 374.222 161.414 374.14 161.338 374.042 161.292 C 373.426 161.041 372.764 160.921 372.099 160.941 C 371.303 160.372 374.528 155.856 375.727 154.409 C 376.926 152.962 376.709 151.835 375.644 151.835 C 374.91 151.835 371.148 156.176 369.991 157.633 C 368.833 159.091 365.764 163.142 365.66 159.907 C 365.557 156.672 364.255 154.233 363.438 153.82 C 362.622 153.406 361.754 154.378 362.198 155.277 C 362.589 156.299 362.832 157.37 362.922 158.46 C 363.034 159.329 362.995 160.21 362.808 161.065 C 362.465 162.656 361.999 164.218 361.413 165.736 L 361.33 165.736 C 361.33 165.736 338.778 187.368 337.145 188.908 C 335.688 190.293 306.377 187.265 300.497 186.645 C 298.498 186.352 296.48 186.214 294.461 186.231 C 291.908 186.345 291.453 186.707 288.911 186.738 C 282.49 186.809 276.084 187.372 269.749 188.422 C 266.881 188.91 264.201 190.176 262.003 192.082 C 259.805 193.989 258.173 196.462 257.285 199.233 C 251.363 217.733 237.948 261.524 235.581 286.121 C 233.792 289.365 232.178 292.701 230.744 296.116 C 229.08 300.643 229.483 300.798 230.041 300.901 C 231.55 301.18 233.266 293.056 233.906 295.02 C 234.547 296.984 230.651 304.704 232.232 304.932 C 234.299 305.221 235.942 296.663 236.139 295.981 C 236.335 295.299 237.358 295.516 237.172 296.157 C 236.873 297.067 233.968 306.709 235.994 307.019 C 237.11 307.185 237.234 305.149 237.234 305.149 C 237.234 305.149 239.301 295.919 240.242 296.105 C 241.182 296.291 240.18 301.738 239.705 303.557 C 239.229 305.376 239.891 306.296 240.862 305.851 C 241.524 305.541 243.105 300.012 243.539 298.214 C 243.973 296.415 245.058 291.434 246.515 294.317 C 247.973 297.201 250.184 298.875 251.094 298.917 C 251.299 298.893 251.492 298.808 251.649 298.674 C 251.805 298.54 251.918 298.362 251.972 298.163 C 252.027 297.964 252.021 297.753 251.954 297.558 C 251.888 297.362 251.765 297.191 251.6 297.067 C 250.818 296.303 250.147 295.433 249.606 294.483 C 249.124 293.743 248.774 292.924 248.572 292.064 C 248.156 290.35 247.913 288.598 247.849 286.835 L 247.683 285.801 C 249.998 274.339 256.665 240.698 266.287 219.211 L 270.235 227.334 L 271.951 233.35 L 261.429 259.322 L 306.305 258.733 L 299.608 232.957 L 307.742 206.085 C 316.537 206.282 339.119 206.612 342.881 204.907 C 347.615 202.84 372.099 171.917 372.099 171.917 C 373.695 170.677 375.224 169.352 376.678 167.948 C 376.678 167.948 378.166 166.697 377.267 165.767 Z" stroke-linecap="round" />
</g>
		<g transform="matrix(1 0 0 1 -69.53 1.16)"  >
<path style="stroke: none; stroke-width: 1; stroke-dasharray: none; stroke-linecap: butt; stroke-dashoffset: 0; stroke-linejoin: miter; stroke-miterlimit: 4; fill: rgb(76,175,79); fill-rule: nonzero; opacity: 1;" vector-effect="non-scaling-stroke"  transform=" translate(-290.55, -220.27)" d="M 259.455 240.13 C 260.757 235.685 267.444 213.713 267.444 213.713 C 267.444 213.713 270.731 231.624 269.863 233.784 C 269.064 235.633 268.121 237.416 267.041 239.117 C 259.455 250.661 260.447 256.439 260.447 256.439 L 306.284 255.043 C 306.388 248.635 302.595 233.732 301.809 231.355 C 301.024 228.978 303.638 221.195 303.638 221.195 C 303.638 221.195 308.806 215.935 308.62 213.227 C 308.522 210.794 308.221 208.375 307.721 205.992 L 335.626 207.026 L 334.748 188.112 L 294.667 184.102 C 293.272 188.04 280.653 186.107 280.653 186.107 C 267.031 186.562 266.183 189.063 260.52 193.466 C 254.856 197.869 245.482 235.654 245.482 235.654 L 259.455 240.13 Z" stroke-linecap="round" />
</g>
		<g transform="matrix(1 0 0 1 -81.7 15.8)"  >
<path style="stroke: none; stroke-width: 1; stroke-dasharray: none; stroke-linecap: butt; stroke-dashoffset: 0; stroke-linejoin: miter; stroke-miterlimit: 4; fill: rgb(38,50,56); fill-rule: nonzero; opacity: 1;" vector-effect="non-scaling-stroke"  transform=" translate(-278.38, -234.91)" d="M 286.554 235.654 C 285.76 235.796 284.951 235.838 284.146 235.778 C 282.648 235.778 280.591 235.675 278.327 235.448 C 276.064 235.22 274.018 234.9 272.56 234.61 C 271.757 234.507 270.969 234.306 270.214 234.011 C 271.022 234.011 271.829 234.088 272.622 234.238 C 274.09 234.424 276.126 234.683 278.379 234.91 C 280.632 235.138 282.679 235.293 284.156 235.396 C 284.962 235.406 285.765 235.493 286.554 235.654 Z" stroke-linecap="round" />
</g>
		<g transform="matrix(1 0 0 1 -79.27 13.83)"  >
<path style="stroke: none; stroke-width: 1; stroke-dasharray: none; stroke-linecap: butt; stroke-dashoffset: 0; stroke-linejoin: miter; stroke-miterlimit: 4; fill: rgb(38,50,56); fill-rule: nonzero; opacity: 1;" vector-effect="non-scaling-stroke"  transform=" translate(-280.81, -232.94)" d="M 289.696 231.758 C 288.902 232.147 288.061 232.435 287.195 232.616 C 283.072 233.699 278.817 234.204 274.555 234.114 C 273.673 234.143 272.791 234.06 271.93 233.866 C 272.8 233.756 273.678 233.712 274.555 233.732 C 276.178 233.68 278.41 233.567 280.87 233.277 C 283.33 232.988 285.521 232.574 287.071 232.244 C 287.932 232.014 288.81 231.851 289.696 231.758 Z" stroke-linecap="round" />
</g>
		<g transform="matrix(1 0 0 1 -56.88 3.05)"  >
<path style="stroke: none; stroke-width: 1; stroke-dasharray: none; stroke-linecap: butt; stroke-dashoffset: 0; stroke-linejoin: miter; stroke-miterlimit: 4; fill: rgb(38,50,56); fill-rule: nonzero; opacity: 1;" vector-effect="non-scaling-stroke"  transform=" translate(-303.2, -222.17)" d="M 305.116 214.374 C 305.096 215.162 304.988 215.945 304.796 216.71 C 304.527 218.146 304.114 220.11 303.587 222.26 C 303.06 224.41 302.553 226.394 302.099 227.738 C 301.916 228.507 301.645 229.252 301.292 229.96 C 301.35 229.174 301.496 228.398 301.726 227.645 C 302.119 226.032 302.564 224.172 303.06 222.136 C 303.556 220.1 304.031 218.239 304.424 216.627 C 304.564 215.851 304.796 215.095 305.116 214.374 Z" stroke-linecap="round" />
</g>
		<g transform="matrix(1 0 0 1 -107.14 16.47)"  >
<path style="stroke: none; stroke-width: 1; stroke-dasharray: none; stroke-linecap: butt; stroke-dashoffset: 0; stroke-linejoin: miter; stroke-miterlimit: 4; fill: rgb(38,50,56); fill-rule: nonzero; opacity: 1;" vector-effect="non-scaling-stroke"  transform=" translate(-252.95, -235.59)" d="M 259.941 237.494 C 257.55 237.125 255.19 236.575 252.882 235.851 C 250.523 235.299 248.209 234.574 245.957 233.68 C 248.347 234.056 250.706 234.605 253.016 235.324 C 255.375 235.873 257.69 236.599 259.941 237.494 Z" stroke-linecap="round" />
</g>
		<g transform="matrix(1 0 0 1 -58.25 -23.61)"  >
<path style="stroke: none; stroke-width: 1; stroke-dasharray: none; stroke-linecap: butt; stroke-dashoffset: 0; stroke-linejoin: miter; stroke-miterlimit: 4; fill: rgb(38,50,56); fill-rule: nonzero; opacity: 1;" vector-effect="non-scaling-stroke"  transform=" translate(-301.84, -195.5)" d="M 308.217 205.765 C 307.827 205.832 307.429 205.832 307.039 205.765 C 305.959 205.654 304.899 205.4 303.887 205.01 C 302.196 204.375 300.657 203.393 299.368 202.127 C 298.079 200.862 297.07 199.341 296.404 197.662 C 295.668 195.815 295.354 193.827 295.484 191.843 C 295.53 190.207 296.019 188.614 296.9 187.234 C 297.519 186.304 298.444 185.62 299.515 185.301 C 299.801 185.222 300.096 185.184 300.393 185.187 C 300.6 185.187 300.703 185.187 300.703 185.187 C 300.703 185.187 300.269 185.187 299.577 185.466 C 298.595 185.829 297.762 186.509 297.21 187.399 C 295.804 189.611 295.412 193.652 296.91 197.424 C 297.608 199.203 298.7 200.8 300.104 202.096 C 301.254 203.156 302.58 204.009 304.021 204.618 C 305.373 205.152 306.781 205.537 308.217 205.765 Z" stroke-linecap="round" />
</g>
		<g transform="matrix(1 0 0 1 -27.76 -21.98)"  >
<path style="stroke: none; stroke-width: 1; stroke-dasharray: none; stroke-linecap: butt; stroke-dashoffset: 0; stroke-linejoin: miter; stroke-miterlimit: 4; fill: rgb(38,50,56); fill-rule: nonzero; opacity: 1;" vector-effect="non-scaling-stroke"  transform=" translate(-332.33, -197.13)" d="M 332.309 206.654 C 332.05 203.484 331.967 200.303 332.06 197.124 C 331.98 193.949 332.076 190.771 332.35 187.606 C 332.609 190.772 332.691 193.949 332.598 197.124 C 332.685 200.304 332.588 203.485 332.309 206.654 Z" stroke-linecap="round" />
</g>
		<g transform="matrix(1 0 0 1 -70.12 -50.48)"  >
<path style="stroke: none; stroke-width: 1; stroke-dasharray: none; stroke-linecap: butt; stroke-dashoffset: 0; stroke-linejoin: miter; stroke-miterlimit: 4; fill: rgb(255,190,157); fill-rule: nonzero; opacity: 1;" vector-effect="non-scaling-stroke"  transform=" translate(-289.97, -168.63)" d="M 294.399 185.26 C 294.512 182.955 294.75 180.35 294.75 180.35 C 294.75 180.35 300.455 179.72 300.796 173.829 C 301.137 167.938 300.796 154.347 300.796 154.347 L 290.461 149.055 L 278.989 158.078 L 280.756 187.533 L 291.277 188.205 C 292.082 188.227 292.862 187.93 293.447 187.378 C 294.032 186.825 294.374 186.064 294.399 185.26 Z" stroke-linecap="round" />
</g>
		<g transform="matrix(1 0 0 1 -65.84 -51.36)"  >
<path style="stroke: none; stroke-width: 1; stroke-dasharray: none; stroke-linecap: butt; stroke-dashoffset: 0; stroke-linejoin: miter; stroke-miterlimit: 4; fill: rgb(235,153,110); fill-rule: nonzero; opacity: 1;" vector-effect="non-scaling-stroke"  transform=" translate(-294.24, -167.76)" d="M 295.422 169.168 C 295.422 169.168 295.422 169.281 295.329 169.416 C 295.252 169.513 295.153 169.59 295.039 169.641 C 294.926 169.691 294.802 169.713 294.678 169.705 C 294.016 169.705 293.376 168.94 293.148 168.051 C 293.04 167.621 293.04 167.17 293.148 166.739 C 293.169 166.551 293.237 166.371 293.346 166.216 C 293.454 166.061 293.599 165.935 293.768 165.85 C 293.907 165.793 294.063 165.793 294.202 165.85 C 294.305 165.901 294.389 165.985 294.44 166.088 C 294.512 166.263 294.44 166.377 294.44 166.367 C 294.44 166.356 294.44 166.263 294.337 166.16 C 294.283 166.086 294.203 166.035 294.114 166.015 C 294.024 165.996 293.93 166.011 293.851 166.057 C 293.724 166.133 293.619 166.241 293.545 166.369 C 293.471 166.497 293.43 166.642 293.427 166.79 C 293.34 167.175 293.34 167.574 293.427 167.958 C 293.634 168.765 294.192 169.416 294.688 169.478 C 294.785 169.491 294.884 169.484 294.978 169.457 C 295.072 169.431 295.16 169.385 295.236 169.323 C 295.36 169.24 295.401 169.157 295.422 169.168 Z" stroke-linecap="round" />
</g>
		<g transform="matrix(1 0 0 1 -81.84 -32.82)"  >
<path style="stroke: none; stroke-width: 1; stroke-dasharray: none; stroke-linecap: butt; stroke-dashoffset: 0; stroke-linejoin: miter; stroke-miterlimit: 4; fill: rgb(38,50,56); fill-rule: nonzero; opacity: 1;" vector-effect="non-scaling-stroke"  transform=" translate(-278.24, -186.29)" d="M 304.341 151.164 C 303.545 148.456 300.662 147.112 298.037 146.368 C 294.037 145.231 289.717 144.735 285.81 146.172 C 281.903 147.608 277.211 150.13 277.211 154.44 C 274.906 154.254 273.584 156.269 272.674 158.77 C 272.093 160.294 271.744 161.897 271.64 163.525 C 271.351 169.168 269.77 176.96 266.111 181.095 C 264.044 183.399 261.181 184.991 260.003 187.864 C 258.969 190.355 259.507 193.311 258.546 195.833 C 257.688 198.055 255.797 199.636 254.412 201.569 C 253.001 203.761 252.17 206.276 251.999 208.878 C 251.827 211.48 252.319 214.082 253.43 216.441 C 254.548 218.74 256.123 220.786 258.058 222.457 C 259.993 224.127 262.248 225.386 264.685 226.156 C 269.513 227.625 274.661 227.675 279.516 226.301 C 283.16 225.43 286.559 223.744 289.458 221.371 C 292.425 218.948 294.463 215.575 295.226 211.821 C 295.959 207.604 294.781 203.315 293.903 199.119 C 291.153 185.859 291.939 185.167 295.412 172.857 C 295.494 172.64 295.536 172.413 295.598 172.196 C 295.66 171.979 295.691 171.875 295.732 171.71 C 295.831 171.224 295.883 170.729 295.887 170.232 C 295.38 170.421 294.829 170.461 294.3 170.347 C 293.771 170.234 293.285 169.971 292.9 169.591 C 292.514 169.186 292.245 168.684 292.121 168.138 C 291.997 167.592 292.024 167.023 292.197 166.491 C 292.441 165.909 292.805 165.385 293.264 164.952 C 293.723 164.519 294.268 164.188 294.864 163.979 C 296.011 163.504 297.241 163.256 298.367 162.729 C 300.755 161.592 302.409 159.235 303.535 156.765 C 304.461 155.053 304.747 153.067 304.341 151.164 Z" stroke-linecap="round" />
</g>
		<g transform="matrix(1 0 0 1 -64.23 -47.62)"  >
<path style="stroke: none; stroke-width: 1; stroke-dasharray: none; stroke-linecap: butt; stroke-dashoffset: 0; stroke-linejoin: miter; stroke-miterlimit: 4; fill: rgb(76,175,79); fill-rule: nonzero; opacity: 1;" vector-effect="non-scaling-stroke"  transform=" translate(-295.85, -171.49)" d="M 295.835 169.447 C 296.054 169.769 296.234 170.116 296.373 170.48 C 296.683 171.131 297.096 172.051 297.551 173.116 L 297.634 173.312 L 297.417 173.312 L 296.383 173.405 C 295.67 173.405 295.071 173.539 294.368 173.529 C 294.307 173.515 294.25 173.486 294.203 173.445 C 294.156 173.403 294.12 173.35 294.099 173.291 C 294.068 173.197 294.068 173.096 294.099 173.002 C 294.123 172.863 294.154 172.725 294.192 172.589 L 294.378 171.855 C 294.472 171.365 294.617 170.887 294.812 170.429 C 294.793 170.928 294.72 171.423 294.595 171.906 L 294.45 172.64 C 294.399 172.888 294.306 173.271 294.45 173.24 C 294.967 173.24 295.701 173.126 296.383 173.085 L 297.417 172.992 L 297.282 173.219 C 296.838 172.186 296.466 171.214 296.249 170.542 C 296.058 170.199 295.919 169.83 295.835 169.447 Z" stroke-linecap="round" />
</g>
		<g transform="matrix(1 0 0 1 -67.85 121.43)"  >
<path style="stroke: none; stroke-width: 1; stroke-dasharray: none; stroke-linecap: butt; stroke-dashoffset: 0; stroke-linejoin: miter; stroke-miterlimit: 4; fill: rgb(38,50,56); fill-rule: nonzero; opacity: 1;" vector-effect="non-scaling-stroke"  transform=" translate(-292.23, -340.55)" d="M 260.447 256.439 L 306.284 255.043 L 326.231 332.909 L 322.562 422.227 L 298.326 422.227 L 301.292 334.811 L 283.567 280.602 L 286.296 425.689 L 261.801 426.051 L 259.228 289.677 C 259.114 285.884 257.874 277.336 258.339 273.574 L 260.447 256.439 Z" stroke-linecap="round" />
</g>
		<g transform="matrix(1 0 0 1 -77.89 61.09)"  >
<path style="stroke: none; stroke-width: 1; stroke-dasharray: none; stroke-linecap: butt; stroke-dashoffset: 0; stroke-linejoin: miter; stroke-miterlimit: 4; fill: rgb(69,90,100); fill-rule: nonzero; opacity: 1;" vector-effect="non-scaling-stroke"  transform=" translate(-282.19, -280.2)" d="M 289.665 281.708 C 288.915 281.756 288.162 281.71 287.422 281.574 C 286.038 281.409 284.146 281.119 282.069 280.706 C 279.991 280.292 278.131 279.817 276.787 279.435 C 276.069 279.277 275.374 279.027 274.72 278.69 C 274.72 278.535 278.09 279.342 282.224 280.179 C 286.358 281.016 289.686 281.553 289.665 281.708 Z" stroke-linecap="round" />
</g>
		<g transform="matrix(1 0 0 1 -50.03 198.21)"  >
<path style="stroke: none; stroke-width: 1; stroke-dasharray: none; stroke-linecap: butt; stroke-dashoffset: 0; stroke-linejoin: miter; stroke-miterlimit: 4; fill: rgb(69,90,100); fill-rule: nonzero; opacity: 1;" vector-effect="non-scaling-stroke"  transform=" translate(-310.05, -417.33)" d="M 322.314 417.328 C 322.314 417.472 316.826 417.596 310.057 417.596 C 303.287 417.596 297.789 417.472 297.789 417.328 C 297.789 417.183 303.277 417.059 310.057 417.059 C 316.837 417.059 322.314 417.173 322.314 417.328 Z" stroke-linecap="round" />
</g>
		<g transform="matrix(1 0 0 1 -85.91 202.8)"  >
<path style="stroke: none; stroke-width: 1; stroke-dasharray: none; stroke-linecap: butt; stroke-dashoffset: 0; stroke-linejoin: miter; stroke-miterlimit: 4; fill: rgb(69,90,100); fill-rule: nonzero; opacity: 1;" vector-effect="non-scaling-stroke"  transform=" translate(-274.18, -421.92)" d="M 286.079 421.916 C 286.079 422.071 280.746 422.185 274.173 422.185 C 267.599 422.185 262.277 422.071 262.277 421.916 C 262.277 421.761 267.61 421.648 274.173 421.648 C 280.736 421.648 286.079 421.772 286.079 421.916 Z" stroke-linecap="round" />
</g>
		<g transform="matrix(1 0 0 1 -78.33 131.62)"  >
<path style="stroke: none; stroke-width: 1; stroke-dasharray: none; stroke-linecap: butt; stroke-dashoffset: 0; stroke-linejoin: miter; stroke-miterlimit: 4; fill: rgb(69,90,100); fill-rule: nonzero; opacity: 1;" vector-effect="non-scaling-stroke"  transform=" translate(-281.75, -350.74)" d="M 282.916 421.544 C 282.772 421.544 282.131 389.846 281.48 350.748 C 280.829 311.65 280.446 279.931 280.58 279.931 C 280.715 279.931 281.376 311.619 282.017 350.738 C 282.658 389.857 283.071 421.544 282.916 421.544 Z" stroke-linecap="round" />
</g>
		<g transform="matrix(1 0 0 1 -47.54 117.77)"  >
<path style="stroke: none; stroke-width: 1; stroke-dasharray: none; stroke-linecap: butt; stroke-dashoffset: 0; stroke-linejoin: miter; stroke-miterlimit: 4; fill: rgb(69,90,100); fill-rule: nonzero; opacity: 1;" vector-effect="non-scaling-stroke"  transform=" translate(-312.54, -336.88)" d="M 319.059 417.328 C 319.047 417.187 319.047 417.045 319.059 416.904 L 319.059 415.664 C 319.059 414.547 319.141 412.946 319.203 410.909 C 319.348 406.775 319.555 400.771 319.813 393.412 C 320.371 378.612 321.157 358.21 322.015 335.689 C 322.015 335.472 322.015 335.266 322.015 335.08 L 322.015 335.152 C 316.589 313.448 311.679 293.749 308.114 279.497 L 303.98 262.64 C 303.504 260.666 303.142 259.126 302.884 258.051 C 302.76 257.544 302.677 257.152 302.605 256.852 C 302.565 256.718 302.54 256.579 302.533 256.439 C 302.586 256.569 302.628 256.704 302.657 256.842 C 302.739 257.131 302.843 257.524 302.987 258.02 C 303.266 259.053 303.669 260.624 304.186 262.588 C 305.22 266.577 306.677 272.324 308.496 279.404 C 312.093 293.646 317.054 313.293 322.552 335.028 L 322.552 335.1 C 322.552 335.286 322.552 335.503 322.552 335.71 C 321.632 358.231 320.795 378.622 320.185 393.422 C 319.865 400.791 319.596 406.755 319.41 410.909 C 319.307 412.977 319.224 414.547 319.172 415.664 C 319.172 416.191 319.11 416.604 319.1 416.904 C 319.102 417.046 319.088 417.188 319.059 417.328 Z" stroke-linecap="round" />
</g>
		<g transform="matrix(1 0 0 1 -54.44 115.09)"  >
<path style="stroke: none; stroke-width: 1; stroke-dasharray: none; stroke-linecap: butt; stroke-dashoffset: 0; stroke-linejoin: miter; stroke-miterlimit: 4; fill: rgb(69,90,100); fill-rule: nonzero; opacity: 1;" vector-effect="non-scaling-stroke"  transform=" translate(-305.65, -334.2)" d="M 311.152 333.261 C 309.411 333.833 307.618 334.231 305.799 334.449 C 303.566 334.832 301.664 335.1 300.807 335.142 L 300.807 334.935 C 301.086 335.018 301.23 335.069 301.23 335.111 C 301.23 335.152 301.055 335.111 300.765 335.111 L 300.145 335.111 L 300.765 334.925 C 301.571 334.687 303.473 334.294 305.706 333.891 C 307.496 333.503 309.32 333.291 311.152 333.261 Z" stroke-linecap="round" />
</g>
		<g transform="matrix(1 0 0 1 -54.17 116.71)"  >
<path style="stroke: none; stroke-width: 1; stroke-dasharray: none; stroke-linecap: butt; stroke-dashoffset: 0; stroke-linejoin: miter; stroke-miterlimit: 4; fill: rgb(69,90,100); fill-rule: nonzero; opacity: 1;" vector-effect="non-scaling-stroke"  transform=" translate(-305.91, -335.82)" d="M 310.728 336.227 C 309.116 336.301 307.501 336.228 305.902 336.01 C 304.288 335.977 302.679 335.8 301.096 335.483 C 304.326 335.219 307.577 335.47 310.728 336.227 Z" stroke-linecap="round" />
</g>
		<g transform="matrix(1 0 0 1 -76.82 38.72)"  >
<path style="stroke: none; stroke-width: 1; stroke-dasharray: none; stroke-linecap: butt; stroke-dashoffset: 0; stroke-linejoin: miter; stroke-miterlimit: 4; fill: rgb(0,0,0); fill-rule: nonzero; opacity: 0.2;" vector-effect="non-scaling-stroke"  transform=" translate(-283.27, -257.84)" d="M 260.251 258.082 C 260.794 258.779 261.478 259.354 262.258 259.769 C 263.038 260.184 263.896 260.429 264.778 260.49 C 266.624 260.709 268.491 260.674 270.328 260.387 C 282.162 259.074 294.698 257.865 306.284 255.043 C 291.288 255.88 275.444 255.601 260.447 256.439 L 260.292 257.72" stroke-linecap="round" />
</g>
		<g transform="matrix(1 0 0 1 -80.16 76.51)"  >
<path style="stroke: none; stroke-width: 1; stroke-dasharray: none; stroke-linecap: butt; stroke-dashoffset: 0; stroke-linejoin: miter; stroke-miterlimit: 4; fill: rgb(0,0,0); fill-rule: nonzero; opacity: 0.2;" vector-effect="non-scaling-stroke"  transform=" translate(-279.93, -295.62)" d="M 275.702 279.217 L 284.157 312.022 L 283.567 280.602 L 275.702 279.217 Z" stroke-linecap="round" />
</g>
</g>
</g>
</svg>